<svg width="41" height="40" viewBox="0 0 41 40" fill="none" xmlns="http://www.w3.org/2000/svg">
<mask id="path-1-inside-1_18_480" fill="white">
<path d="M39.9135 11.7602C39.8198 9.63482 39.4761 8.17365 38.9838 6.90754C38.4759 5.56359 37.6945 4.36035 36.6707 3.36009C35.6704 2.34427 34.4593 1.55493 33.1309 1.05495C31.8574 0.56261 30.4039 0.218915 28.2786 0.125207C26.1373 0.0235641 25.4576 6.10352e-05 20.0268 6.10352e-05C14.5961 6.10352e-05 13.9163 0.0235641 11.783 0.117271C9.6577 0.210979 8.19654 0.554979 6.93073 1.04702C5.58647 1.55493 4.38323 2.33633 3.38298 3.36009C2.36716 4.36035 1.57812 5.57152 1.07784 6.89991C0.585497 8.17365 0.241803 9.62688 0.148096 11.7522C0.0464523 13.8935 0.0229492 14.5732 0.0229492 20.004C0.0229492 25.4347 0.0464523 26.1145 0.14016 28.2478C0.233867 30.3731 0.577867 31.8343 1.07021 33.1004C1.57812 34.4443 2.36716 35.6476 3.38298 36.6478C4.38323 37.6637 5.59441 38.453 6.92279 38.953C8.19654 39.4453 9.64976 39.789 11.7754 39.8827C13.9084 39.9767 14.5885 39.9999 20.0192 39.9999C25.45 39.9999 26.1297 39.9767 28.263 39.8827C30.3884 39.789 31.8495 39.4453 33.1153 38.953C35.8035 37.9137 37.9289 35.7883 38.9682 33.1004C39.4602 31.8266 39.8042 30.3731 39.8979 28.2478C39.9917 26.1145 40.0152 25.4347 40.0152 20.004C40.0152 14.5732 40.0072 13.8935 39.9135 11.7602ZM36.3114 28.0915C36.2254 30.045 35.8972 31.0999 35.6237 31.8031C34.9516 33.5457 33.5686 34.9288 31.826 35.6009C31.1227 35.8744 30.0602 36.2025 28.1143 36.2883C26.0046 36.3823 25.3718 36.4055 20.0348 36.4055C14.6977 36.4055 14.057 36.3823 11.9549 36.2883C10.0014 36.2025 8.9465 35.8744 8.24324 35.6009C7.37606 35.2804 6.58673 34.7725 5.94604 34.1083C5.28185 33.4597 4.77393 32.6783 4.45344 31.8111C4.17995 31.1078 3.85182 30.045 3.76605 28.0994C3.67204 25.9896 3.64884 25.3566 3.64884 20.0195C3.64884 14.6825 3.67204 14.0418 3.76605 11.94C3.85182 9.98645 4.17995 8.93155 4.45344 8.22829C4.77393 7.36081 5.28185 6.57178 5.95397 5.93078C6.60229 5.26659 7.38369 4.75868 8.25117 4.43849C8.95443 4.165 10.0173 3.83687 11.9628 3.75079C14.0726 3.65709 14.7057 3.63358 20.0424 3.63358C25.3874 3.63358 26.0201 3.65709 28.1223 3.75079C30.0758 3.83687 31.1307 4.165 31.8339 4.43849C32.7011 4.75868 33.4905 5.26659 34.1311 5.93078C34.7953 6.57941 35.3032 7.36081 35.6237 8.22829C35.8972 8.93155 36.2254 9.99408 36.3114 11.94C36.4051 14.0497 36.4286 14.6825 36.4286 20.0195C36.4286 25.3566 36.4051 25.9817 36.3114 28.0915Z"/>
<path d="M20.0268 9.72837C14.354 9.72837 9.75139 14.3307 9.75139 20.0038C9.75139 25.6769 14.354 30.2793 20.0268 30.2793C25.6999 30.2793 30.3023 25.6769 30.3023 20.0038C30.3023 14.3307 25.6999 9.72837 20.0268 9.72837ZM20.0268 26.6692C16.3466 26.6692 13.3614 23.6843 13.3614 20.0038C13.3614 16.3233 16.3466 13.3384 20.0268 13.3384C23.7074 13.3384 26.6923 16.3233 26.6923 20.0038C26.6923 23.6843 23.7074 26.6692 20.0268 26.6692Z"/>
<path d="M33.1077 9.32226C33.1077 10.647 32.0336 11.7211 30.7086 11.7211C29.3838 11.7211 28.3097 10.647 28.3097 9.32226C28.3097 7.99724 29.3838 6.92342 30.7086 6.92342C32.0336 6.92342 33.1077 7.99724 33.1077 9.32226Z"/>
</mask>
<path d="M39.9135 11.7602C39.8198 9.63482 39.4761 8.17365 38.9838 6.90754C38.4759 5.56359 37.6945 4.36035 36.6707 3.36009C35.6704 2.34427 34.4593 1.55493 33.1309 1.05495C31.8574 0.56261 30.4039 0.218915 28.2786 0.125207C26.1373 0.0235641 25.4576 6.10352e-05 20.0268 6.10352e-05C14.5961 6.10352e-05 13.9163 0.0235641 11.783 0.117271C9.6577 0.210979 8.19654 0.554979 6.93073 1.04702C5.58647 1.55493 4.38323 2.33633 3.38298 3.36009C2.36716 4.36035 1.57812 5.57152 1.07784 6.89991C0.585497 8.17365 0.241803 9.62688 0.148096 11.7522C0.0464523 13.8935 0.0229492 14.5732 0.0229492 20.004C0.0229492 25.4347 0.0464523 26.1145 0.14016 28.2478C0.233867 30.3731 0.577867 31.8343 1.07021 33.1004C1.57812 34.4443 2.36716 35.6476 3.38298 36.6478C4.38323 37.6637 5.59441 38.453 6.92279 38.953C8.19654 39.4453 9.64976 39.789 11.7754 39.8827C13.9084 39.9767 14.5885 39.9999 20.0192 39.9999C25.45 39.9999 26.1297 39.9767 28.263 39.8827C30.3884 39.789 31.8495 39.4453 33.1153 38.953C35.8035 37.9137 37.9289 35.7883 38.9682 33.1004C39.4602 31.8266 39.8042 30.3731 39.8979 28.2478C39.9917 26.1145 40.0152 25.4347 40.0152 20.004C40.0152 14.5732 40.0072 13.8935 39.9135 11.7602ZM36.3114 28.0915C36.2254 30.045 35.8972 31.0999 35.6237 31.8031C34.9516 33.5457 33.5686 34.9288 31.826 35.6009C31.1227 35.8744 30.0602 36.2025 28.1143 36.2883C26.0046 36.3823 25.3718 36.4055 20.0348 36.4055C14.6977 36.4055 14.057 36.3823 11.9549 36.2883C10.0014 36.2025 8.9465 35.8744 8.24324 35.6009C7.37606 35.2804 6.58673 34.7725 5.94604 34.1083C5.28185 33.4597 4.77393 32.6783 4.45344 31.8111C4.17995 31.1078 3.85182 30.045 3.76605 28.0994C3.67204 25.9896 3.64884 25.3566 3.64884 20.0195C3.64884 14.6825 3.67204 14.0418 3.76605 11.94C3.85182 9.98645 4.17995 8.93155 4.45344 8.22829C4.77393 7.36081 5.28185 6.57178 5.95397 5.93078C6.60229 5.26659 7.38369 4.75868 8.25117 4.43849C8.95443 4.165 10.0173 3.83687 11.9628 3.75079C14.0726 3.65709 14.7057 3.63358 20.0424 3.63358C25.3874 3.63358 26.0201 3.65709 28.1223 3.75079C30.0758 3.83687 31.1307 4.165 31.8339 4.43849C32.7011 4.75868 33.4905 5.26659 34.1311 5.93078C34.7953 6.57941 35.3032 7.36081 35.6237 8.22829C35.8972 8.93155 36.2254 9.99408 36.3114 11.94C36.4051 14.0497 36.4286 14.6825 36.4286 20.0195C36.4286 25.3566 36.4051 25.9817 36.3114 28.0915Z" fill="#181818"/>
<path d="M20.0268 9.72837C14.354 9.72837 9.75139 14.3307 9.75139 20.0038C9.75139 25.6769 14.354 30.2793 20.0268 30.2793C25.6999 30.2793 30.3023 25.6769 30.3023 20.0038C30.3023 14.3307 25.6999 9.72837 20.0268 9.72837ZM20.0268 26.6692C16.3466 26.6692 13.3614 23.6843 13.3614 20.0038C13.3614 16.3233 16.3466 13.3384 20.0268 13.3384C23.7074 13.3384 26.6923 16.3233 26.6923 20.0038C26.6923 23.6843 23.7074 26.6692 20.0268 26.6692Z" fill="#181818"/>
<path d="M33.1077 9.32226C33.1077 10.647 32.0336 11.7211 30.7086 11.7211C29.3838 11.7211 28.3097 10.647 28.3097 9.32226C28.3097 7.99724 29.3838 6.92342 30.7086 6.92342C32.0336 6.92342 33.1077 7.99724 33.1077 9.32226Z" fill="#181818"/>
<path d="M39.9135 11.7602L56.8971 11.0141L56.897 11.0114L39.9135 11.7602ZM38.9838 6.90754L23.0815 12.9174L23.1102 12.9932L23.1395 13.0688L38.9838 6.90754ZM36.6707 3.36009L24.5574 15.2877L24.6727 15.4048L24.7903 15.5197L36.6707 3.36009ZM33.1309 1.05495L27.0005 16.9111L27.0714 16.9385L27.1426 16.9653L33.1309 1.05495ZM28.2786 0.125207L27.4725 17.1061L27.5011 17.1074L27.5298 17.1087L28.2786 0.125207ZM11.783 0.117271L11.037 -16.8664L11.0342 -16.8662L11.783 0.117271ZM6.93073 1.04702L12.9394 16.9497L13.0148 16.9212L13.0899 16.892L6.93073 1.04702ZM3.38298 3.36009L15.3106 15.4734L15.4277 15.3581L15.5426 15.2405L3.38298 3.36009ZM1.07784 6.89991L16.9345 13.029L16.9611 12.9603L16.987 12.8914L1.07784 6.89991ZM0.148096 11.7522L17.129 12.5583L17.1303 12.5297L17.1316 12.501L0.148096 11.7522ZM0.14016 28.2478L-16.8435 28.9938L-16.8433 28.9966L0.14016 28.2478ZM1.07021 33.1004L16.9725 27.0906L16.9438 27.0147L16.9144 26.9392L1.07021 33.1004ZM3.38298 36.6478L15.4963 24.7202L15.4042 24.6267L15.3106 24.5346L3.38298 36.6478ZM6.92279 38.953L13.0519 23.0963L12.9816 23.0691L12.9111 23.0426L6.92279 38.953ZM11.7754 39.8827L11.0267 56.8662L11.0269 56.8662L11.7754 39.8827ZM28.263 39.8827L29.0114 56.8662L29.0118 56.8662L28.263 39.8827ZM33.1153 38.953L26.9849 23.0968L26.9689 23.103L26.9528 23.1093L33.1153 38.953ZM38.9682 33.1004L54.8242 39.2314L54.8262 39.2262L38.9682 33.1004ZM39.8979 28.2478L56.8815 28.9966L56.8816 28.9938L39.8979 28.2478ZM36.3114 28.0915L19.3282 27.3372L19.3279 27.3431L36.3114 28.0915ZM35.6237 31.8031L19.7797 25.6416L19.7711 25.6635L19.7627 25.6854L35.6237 31.8031ZM31.826 35.6009L25.7083 19.7398L25.6863 19.7483L25.6644 19.7568L31.826 35.6009ZM28.1143 36.2883L27.3657 19.3048L27.3576 19.3051L28.1143 36.2883ZM11.9549 36.2883L12.7144 19.3052L12.7006 19.3046L11.9549 36.2883ZM8.24324 35.6009L14.4048 19.7568L14.2711 19.7048L14.1366 19.6551L8.24324 35.6009ZM5.94604 34.1083L18.1814 22.3059L18.0051 22.1232L17.8235 21.9458L5.94604 34.1083ZM4.45344 31.8111L20.3992 25.9177L20.3495 25.7832L20.2975 25.6495L4.45344 31.8111ZM3.76605 28.0994L20.7496 27.3507L20.7492 27.3426L3.76605 28.0994ZM3.76605 11.94L20.7491 12.6996L20.7497 12.6856L3.76605 11.94ZM4.45344 8.22829L20.2975 14.3899L20.3499 14.2553L20.3999 14.1198L4.45344 8.22829ZM5.95397 5.93078L17.6865 18.2332L17.9067 18.0231L18.1193 17.8054L5.95397 5.93078ZM8.25117 4.43849L14.1378 20.3868L14.2757 20.3359L14.4128 20.2826L8.25117 4.43849ZM11.9628 3.75079L12.7142 20.7342L12.7172 20.7341L11.9628 3.75079ZM28.1223 3.75079L27.3652 20.7339L27.3739 20.7343L28.1223 3.75079ZM31.8339 4.43849L25.6724 20.2826L25.8085 20.3355L25.9455 20.3861L31.8339 4.43849ZM34.1311 5.93078L21.8958 17.7332L22.0721 17.9159L22.2537 18.0933L34.1311 5.93078ZM35.6237 8.22829L19.6773 14.1198L19.7273 14.2553L19.7797 14.3899L35.6237 8.22829ZM36.3114 11.94L19.328 12.6912L19.3282 12.6943L36.3114 11.94ZM56.897 11.0114C56.7303 7.23052 56.0615 3.91844 54.828 0.746325L23.1395 13.0688C23.1025 12.9735 23.0605 12.8541 23.0207 12.7193C22.9809 12.5848 22.9526 12.4663 22.9337 12.3727C22.8952 12.1816 22.9161 12.1936 22.93 12.509L56.897 11.0114ZM54.886 0.897696C53.5169 -2.72496 51.378 -6.03747 48.5511 -8.79949L24.7903 15.5197C24.0109 14.7582 23.4348 13.8521 23.0815 12.9174L54.886 0.897696ZM48.784 -8.56754C46.0673 -11.3265 42.7703 -13.4812 39.1192 -14.8554L27.1426 16.9653C26.1482 16.5911 25.2736 16.0151 24.5574 15.2877L48.784 -8.56754ZM39.2613 -14.8012C36.1156 -16.0174 32.8264 -16.6908 29.0274 -16.8583L27.5298 17.1087C27.8431 17.1225 27.8519 17.1431 27.659 17.1042C27.5652 17.0852 27.4492 17.0573 27.3201 17.0192C27.191 16.9811 27.0812 16.9423 27.0005 16.9111L39.2613 -14.8012ZM29.0846 -16.8557C26.5386 -16.9765 25.542 -16.9999 20.0268 -16.9999V17.0001C25.3731 17.0001 25.7361 17.0237 27.4725 17.1061L29.0846 -16.8557ZM20.0268 -16.9999C14.5072 -16.9999 13.5391 -16.9763 11.037 -16.8664L12.5291 17.1009C14.2935 17.0234 14.685 17.0001 20.0268 17.0001V-16.9999ZM11.0342 -16.8662C7.25122 -16.6994 3.9403 -16.0297 0.77153 -14.798L13.0899 16.892C12.9954 16.9288 12.8765 16.9706 12.7423 17.0103C12.6082 17.0499 12.49 17.0782 12.3966 17.097C12.2056 17.1355 12.2174 17.1146 12.5319 17.1008L11.0342 -16.8662ZM0.922068 -14.8557C-2.70154 -13.4865 -6.01442 -11.3474 -8.77661 -8.52033L15.5426 15.2405C14.7809 16.0201 13.8745 16.5964 12.9394 16.9497L0.922068 -14.8557ZM-8.54467 -8.75318C-11.3052 -6.03491 -13.458 -2.73829 -14.8313 0.908385L16.987 12.8914C16.6142 13.8813 16.0395 14.7556 15.3106 15.4734L-8.54467 -8.75318ZM-14.7788 0.770795C-15.9943 3.91536 -16.6679 7.20368 -16.8354 11.0034L17.1316 12.501C17.1454 12.1878 17.166 12.1791 17.1271 12.372C17.1081 12.4659 17.0802 12.5818 17.0422 12.7107C17.0041 12.8395 16.9655 12.9489 16.9345 13.029L-14.7788 0.770795ZM-16.8328 10.9462C-16.9536 13.4922 -16.9771 14.4888 -16.9771 20.004H17.0229C17.0229 14.6577 17.0465 14.2947 17.129 12.5583L-16.8328 10.9462ZM-16.9771 20.004C-16.9771 25.5236 -16.9534 26.4917 -16.8435 28.9938L17.1238 27.5017C17.0463 25.7373 17.0229 25.3458 17.0229 20.004H-16.9771ZM-16.8433 28.9966C-16.6765 32.7797 -16.0068 36.0914 -14.774 39.2616L16.9144 26.9392C16.9513 27.0339 16.9931 27.1529 17.0329 27.2874C17.0726 27.4216 17.1009 27.54 17.1198 27.6337C17.1584 27.825 17.1375 27.8135 17.1237 27.499L-16.8433 28.9966ZM-14.832 39.1102C-13.446 42.7778 -11.2909 46.057 -8.54467 48.7611L15.3106 24.5346C16.0252 25.2382 16.6022 26.1109 16.9725 27.0906L-14.832 39.1102ZM-8.7303 48.5755C-6.01361 51.3345 -2.71663 53.4892 0.934459 54.8633L12.9111 23.0426C13.9054 23.4168 14.7801 23.9929 15.4963 24.7202L-8.7303 48.5755ZM0.793668 54.8096C3.93839 56.0252 7.22676 56.6987 11.0267 56.8662L12.5241 22.8992C12.2107 22.8854 12.2019 22.8648 12.3948 22.9037C12.4887 22.9227 12.6046 22.9506 12.7335 22.9886C12.8624 23.0267 12.9718 23.0653 13.0519 23.0963L0.793668 54.8096ZM11.0269 56.8662C13.5314 56.9766 14.5018 56.9999 20.0192 56.9999V22.9999C14.6751 22.9999 14.2855 22.9769 12.524 22.8992L11.0269 56.8662ZM20.0192 56.9999C25.5366 56.9999 26.5068 56.9766 29.0114 56.8662L27.5145 22.8992C25.7527 22.9769 25.3633 22.9999 20.0192 22.9999V56.9999ZM29.0118 56.8662C32.7924 56.6995 36.105 56.0308 39.2778 54.7967L26.9528 23.1093C27.0484 23.0721 27.1682 23.03 27.3032 22.9901C27.4379 22.9502 27.5566 22.9218 27.6502 22.903C27.8415 22.8644 27.8296 22.8853 27.5142 22.8992L29.0118 56.8662ZM39.2457 54.8092C46.4009 52.0428 52.0576 46.3862 54.8242 39.2314L23.1123 26.9694C23.8002 25.1904 25.2061 23.7845 26.9849 23.0968L39.2457 54.8092ZM54.8262 39.2262C56.0395 36.0853 56.7138 32.7983 56.8815 28.9966L22.9144 27.499C22.9007 27.8113 22.8801 27.82 22.919 27.6277C22.9379 27.5341 22.9656 27.4188 23.0035 27.2906C23.0413 27.1624 23.0796 27.0538 23.1103 26.9746L54.8262 39.2262ZM56.8816 28.9938C56.9915 26.4917 57.0152 25.5236 57.0152 20.004H23.0152C23.0152 25.3458 22.9918 25.7373 22.9143 27.5017L56.8816 28.9938ZM57.0152 20.004C57.0152 14.592 57.0093 13.5667 56.8971 11.0141L22.9299 12.5062C23.0052 14.2202 23.0152 14.5545 23.0152 20.004H57.0152ZM19.3279 27.3431C19.3211 27.498 19.3189 27.3059 19.4112 26.8728C19.4571 26.6577 19.5175 26.424 19.5925 26.1813C19.6678 25.9377 19.739 25.7461 19.7797 25.6416L51.4678 37.9647C52.3931 35.5855 53.1246 32.705 53.295 28.8398L19.3279 27.3431ZM19.7627 25.6854C20.8175 22.9506 22.9734 20.7947 25.7083 19.7398L37.9437 51.4619C44.1638 49.0628 49.0857 44.1409 51.4848 37.9209L19.7627 25.6854ZM25.6644 19.7568C25.7785 19.7124 25.9726 19.6407 26.2153 19.5659C26.4567 19.4915 26.6877 19.432 26.8992 19.387C27.3253 19.2964 27.5145 19.2982 27.3657 19.3048L28.863 53.2718C32.7115 53.1021 35.5999 52.3735 37.9876 51.445L25.6644 19.7568ZM27.3576 19.3051C25.62 19.3826 25.2782 19.4055 20.0348 19.4055V53.4055C25.4655 53.4055 26.3892 53.382 28.8711 53.2714L27.3576 19.3051ZM20.0348 19.4055C14.7896 19.4055 14.4418 19.3825 12.7144 19.3053L11.1954 53.2713C13.6723 53.3821 14.6059 53.4055 20.0348 53.4055V19.4055ZM12.7006 19.3046C12.5462 19.2979 12.7389 19.2957 13.1726 19.3881C13.388 19.434 13.622 19.4945 13.8648 19.5696C14.1086 19.6449 14.3003 19.7162 14.4048 19.7568L2.08165 51.445C4.46128 52.3704 7.34268 53.1021 11.2092 53.2719L12.7006 19.3046ZM14.1366 19.6551C15.588 20.1915 16.9883 21.069 18.1814 22.3059L-6.28931 45.9107C-3.8148 48.476 -0.835886 50.3693 2.34986 51.5467L14.1366 19.6551ZM17.8235 21.9458C18.9535 23.0494 19.8405 24.4061 20.3992 25.9177L-11.4924 37.7045C-10.2927 40.9504 -8.38985 43.8699 -5.93141 46.2708L17.8235 21.9458ZM20.2975 25.6495C20.342 25.764 20.4138 25.9582 20.4886 26.2008C20.5629 26.4421 20.6224 26.6731 20.6674 26.8844C20.7579 27.3102 20.7561 27.4993 20.7496 27.3507L-13.2175 28.8481C-13.0478 32.696 -12.3193 35.5847 -11.3906 37.9727L20.2975 25.6495ZM20.7492 27.3426C20.6718 25.6051 20.6488 25.263 20.6488 20.0195H-13.3512C-13.3512 25.4502 -13.3277 26.3742 -13.2171 28.8562L20.7492 27.3426ZM20.6488 20.0195C20.6488 14.7743 20.6718 14.4266 20.7491 12.6996L-13.217 11.1803C-13.3277 13.657 -13.3512 14.5907 -13.3512 20.0195H20.6488ZM20.7497 12.6856C20.7565 12.5313 20.7586 12.7239 20.6662 13.1576C20.6203 13.373 20.5598 13.607 20.4847 13.8499C20.4094 14.0936 20.3382 14.2854 20.2975 14.3899L-11.3906 2.06671C-12.3161 4.44637 -13.0478 7.32777 -13.2176 11.1943L20.7497 12.6856ZM20.3999 14.1198C19.8603 15.5805 18.9663 17.0126 17.6865 18.2332L-5.77854 -6.37158C-8.40259 -3.86908 -10.3124 -0.858834 -11.493 2.33675L20.3999 14.1198ZM18.1193 17.8054C17.0136 18.9381 15.6536 19.8273 14.1378 20.3868L2.36455 -11.5098C-0.886194 -10.3099 -3.80898 -8.40495 -6.21133 -5.94379L18.1193 17.8054ZM14.4128 20.2826C14.2983 20.3271 14.1042 20.3988 13.8618 20.4735C13.6206 20.5478 13.3899 20.6073 13.1789 20.6522C12.7537 20.7427 12.5651 20.7408 12.7142 20.7342L11.2114 -13.2326C7.3649 -13.0624 4.47713 -12.3341 2.08958 -11.4056L14.4128 20.2826ZM12.7172 20.7341C14.4574 20.6568 14.8015 20.6336 20.0424 20.6336V-13.3664C14.6098 -13.3664 13.6878 -13.3426 11.2085 -13.2325L12.7172 20.7341ZM20.0424 20.6336C25.2929 20.6336 25.6349 20.6568 27.3652 20.7339L28.8793 -13.2323C26.4053 -13.3426 25.4819 -13.3664 20.0424 -13.3664V20.6336ZM27.3739 20.7343C27.5288 20.7411 27.3367 20.7433 26.9036 20.651C26.6885 20.6051 26.4547 20.5447 26.2121 20.4697C25.9685 20.3944 25.7769 20.3232 25.6724 20.2826L37.9955 -11.4056C35.6163 -12.3308 32.7358 -13.0624 28.8706 -13.2327L27.3739 20.7343ZM25.9455 20.3861C24.4903 19.8488 23.0888 18.9699 21.8958 17.7332L46.3665 -5.8716C43.8921 -8.43674 40.912 -10.3314 37.7224 -11.5091L25.9455 20.3861ZM22.2537 18.0933C21.1234 16.9894 20.236 15.6321 19.6773 14.1198L51.5702 2.33675C50.3705 -0.910515 48.4673 -3.83061 46.0086 -6.23171L22.2537 18.0933ZM19.7797 14.3899C19.7353 14.2758 19.6636 14.0818 19.5889 13.8393C19.5145 13.5981 19.455 13.3673 19.4101 13.1561C19.3196 12.7306 19.3214 12.5419 19.328 12.6912L53.2948 11.1887C53.1246 7.34143 52.3962 4.45394 51.4678 2.06671L19.7797 14.3899ZM19.3282 12.6943C19.4055 14.4345 19.4286 14.7784 19.4286 20.0195H53.4286C53.4286 14.5866 53.4048 13.665 53.2947 11.1856L19.3282 12.6943ZM19.4286 20.0195C19.4286 25.2599 19.4055 25.5964 19.3282 27.3372L53.2947 28.8458C53.4048 26.367 53.4286 25.4533 53.4286 20.0195H19.4286ZM20.0268 -7.27163C4.96552 -7.27163 -7.24861 4.94154 -7.24861 20.0038H26.7514C26.7514 23.7199 23.7425 26.7284 20.0268 26.7284V-7.27163ZM-7.24861 20.0038C-7.24861 35.0661 4.96552 47.2793 20.0268 47.2793V13.2793C23.7425 13.2793 26.7514 16.2877 26.7514 20.0038H-7.24861ZM20.0268 47.2793C35.0888 47.2793 47.3023 35.0658 47.3023 20.0038H13.3023C13.3023 16.2881 16.3111 13.2793 20.0268 13.2793V47.2793ZM47.3023 20.0038C47.3023 4.94187 35.0888 -7.27163 20.0268 -7.27163V26.7284C16.3111 26.7284 13.3023 23.7195 13.3023 20.0038H47.3023ZM20.0268 9.66924C25.735 9.66924 30.3614 14.295 30.3614 20.0038H-3.63859C-3.63859 33.0737 6.95827 43.6692 20.0268 43.6692V9.66924ZM30.3614 20.0038C30.3614 25.7126 25.7349 30.3384 20.0268 30.3384V-3.66161C6.95828 -3.66161 -3.63859 6.93394 -3.63859 20.0038H30.3614ZM20.0268 30.3384C14.3185 30.3384 9.69226 25.7121 9.69226 20.0038H43.6923C43.6923 6.93444 33.0962 -3.66161 20.0268 -3.66161V30.3384ZM9.69226 20.0038C9.69226 14.2955 14.3185 9.66924 20.0268 9.66924V43.6692C33.0962 43.6692 43.6923 33.0732 43.6923 20.0038H9.69226ZM16.1077 9.32226C16.1077 1.25668 22.6462 -5.27889 30.7086 -5.27889V28.7211C41.421 28.7211 50.1077 20.0373 50.1077 9.32226H16.1077ZM30.7086 -5.27889C38.7726 -5.27889 45.3097 1.25808 45.3097 9.32226H11.3097C11.3097 20.0359 19.9951 28.7211 30.7086 28.7211V-5.27889ZM45.3097 9.32226C45.3097 17.3876 38.7712 23.9234 30.7086 23.9234V-10.0766C19.9965 -10.0766 11.3097 -1.39308 11.3097 9.32226H45.3097ZM30.7086 23.9234C22.6476 23.9234 16.1077 17.389 16.1077 9.32226H50.1077C50.1077 -1.39448 41.4196 -10.0766 30.7086 -10.0766V23.9234Z" fill="#181818" mask="url(#path-1-inside-1_18_480)"/>
</svg>
