<svg width="41" height="26" viewBox="0 0 41 26" fill="none" xmlns="http://www.w3.org/2000/svg">
<mask id="path-1-inside-1_18_482" fill="white">
<path d="M21.2182 25.5C27.0049 25.5 24.9416 21.8367 25.3882 20.7833C25.3816 19.9967 25.3749 19.24 25.4016 18.78C25.7682 18.8833 26.6332 19.3217 28.4199 21.0583C31.1782 23.8417 31.8832 25.5 34.1116 25.5H38.2132C39.5132 25.5 40.1899 24.9617 40.5282 24.51C40.8549 24.0733 41.1749 23.3067 40.8249 22.1133C39.9099 19.24 34.5732 14.2783 34.2416 13.755C34.2916 13.6583 34.3716 13.53 34.4132 13.4633H34.4099C35.4632 12.0717 39.4832 6.04834 40.0749 3.63834C40.0766 3.635 40.0782 3.63 40.0782 3.625C40.3982 2.525 40.1049 1.81167 39.8016 1.40834C39.3449 0.805004 38.6182 0.500004 37.6366 0.500004H33.5349C32.1616 0.500004 31.1199 1.19167 30.5932 2.45334C29.7116 4.695 27.2349 9.305 25.3782 10.9367C25.3216 8.625 25.3599 6.86 25.3899 5.54834C25.4499 2.99 25.6432 0.500004 22.9882 0.500004H16.5416C14.8782 0.500004 13.2866 2.31667 15.0099 4.47334C16.5166 6.36334 15.5516 7.41667 15.8766 12.66C14.6099 11.3017 12.3566 7.63333 10.7632 2.945C10.3166 1.67667 9.6399 0.50167 7.7349 0.50167H3.63323C1.9699 0.50167 0.976562 1.40834 0.976562 2.92667C0.976562 6.33667 8.5249 25.5 21.2182 25.5ZM7.7349 3.00167C8.09656 3.00167 8.13323 3.00167 8.40156 3.76334C10.0332 8.56833 13.6932 15.6783 16.3666 15.6783C18.3749 15.6783 18.3749 13.62 18.3749 12.845L18.3732 6.675C18.2632 4.63334 17.5199 3.61667 17.0316 3L22.8782 3.00667C22.8816 3.035 22.8449 9.83167 22.8949 11.4783C22.8949 13.8167 24.7516 15.1567 27.6499 12.2233C30.7082 8.77167 32.8232 3.61167 32.9082 3.40167C33.0332 3.10167 33.1416 3 33.5349 3H37.6532C37.6516 3.005 37.6516 3.01 37.6499 3.015C37.2749 4.765 33.5732 10.3417 32.3349 12.0733C32.3149 12.1 32.2966 12.1283 32.2782 12.1567C31.7332 13.0467 31.2899 14.03 32.3532 15.4133H32.3549C32.4516 15.53 32.7032 15.8033 33.0699 16.1833C34.2099 17.36 38.1199 21.3833 38.4666 22.9833C38.2366 23.02 37.9866 22.9933 34.1116 23.0017C33.2866 23.0017 32.6416 21.7683 30.1799 19.285C27.9666 17.1317 26.5299 16.2517 25.2216 16.2517C22.6816 16.2517 22.8666 18.3133 22.8899 20.8067C22.8982 23.51 22.8816 22.655 22.8999 22.825C22.7516 22.8833 22.3266 23 21.2182 23C10.6432 23 3.75656 6.215 3.49156 3.00667C3.58323 2.99834 4.8449 3.00334 7.7349 3.00167Z"/>
</mask>
<path d="M21.2182 25.5C27.0049 25.5 24.9416 21.8367 25.3882 20.7833C25.3816 19.9967 25.3749 19.24 25.4016 18.78C25.7682 18.8833 26.6332 19.3217 28.4199 21.0583C31.1782 23.8417 31.8832 25.5 34.1116 25.5H38.2132C39.5132 25.5 40.1899 24.9617 40.5282 24.51C40.8549 24.0733 41.1749 23.3067 40.8249 22.1133C39.9099 19.24 34.5732 14.2783 34.2416 13.755C34.2916 13.6583 34.3716 13.53 34.4132 13.4633H34.4099C35.4632 12.0717 39.4832 6.04834 40.0749 3.63834C40.0766 3.635 40.0782 3.63 40.0782 3.625C40.3982 2.525 40.1049 1.81167 39.8016 1.40834C39.3449 0.805004 38.6182 0.500004 37.6366 0.500004H33.5349C32.1616 0.500004 31.1199 1.19167 30.5932 2.45334C29.7116 4.695 27.2349 9.305 25.3782 10.9367C25.3216 8.625 25.3599 6.86 25.3899 5.54834C25.4499 2.99 25.6432 0.500004 22.9882 0.500004H16.5416C14.8782 0.500004 13.2866 2.31667 15.0099 4.47334C16.5166 6.36334 15.5516 7.41667 15.8766 12.66C14.6099 11.3017 12.3566 7.63333 10.7632 2.945C10.3166 1.67667 9.6399 0.50167 7.7349 0.50167H3.63323C1.9699 0.50167 0.976562 1.40834 0.976562 2.92667C0.976562 6.33667 8.5249 25.5 21.2182 25.5ZM7.7349 3.00167C8.09656 3.00167 8.13323 3.00167 8.40156 3.76334C10.0332 8.56833 13.6932 15.6783 16.3666 15.6783C18.3749 15.6783 18.3749 13.62 18.3749 12.845L18.3732 6.675C18.2632 4.63334 17.5199 3.61667 17.0316 3L22.8782 3.00667C22.8816 3.035 22.8449 9.83167 22.8949 11.4783C22.8949 13.8167 24.7516 15.1567 27.6499 12.2233C30.7082 8.77167 32.8232 3.61167 32.9082 3.40167C33.0332 3.10167 33.1416 3 33.5349 3H37.6532C37.6516 3.005 37.6516 3.01 37.6499 3.015C37.2749 4.765 33.5732 10.3417 32.3349 12.0733C32.3149 12.1 32.2966 12.1283 32.2782 12.1567C31.7332 13.0467 31.2899 14.03 32.3532 15.4133H32.3549C32.4516 15.53 32.7032 15.8033 33.0699 16.1833C34.2099 17.36 38.1199 21.3833 38.4666 22.9833C38.2366 23.02 37.9866 22.9933 34.1116 23.0017C33.2866 23.0017 32.6416 21.7683 30.1799 19.285C27.9666 17.1317 26.5299 16.2517 25.2216 16.2517C22.6816 16.2517 22.8666 18.3133 22.8899 20.8067C22.8982 23.51 22.8816 22.655 22.8999 22.825C22.7516 22.8833 22.3266 23 21.2182 23C10.6432 23 3.75656 6.215 3.49156 3.00667C3.58323 2.99834 4.8449 3.00334 7.7349 3.00167Z" fill="#181818"/>
<path d="M25.3882 20.7833L41.0392 27.4201L42.4175 24.1697L42.3876 20.6393L25.3882 20.7833ZM25.4016 18.78L30.0128 2.41736L9.65419 -3.32008L8.43006 17.7961L25.4016 18.78ZM28.4199 21.0583L40.4948 9.09186L40.3829 8.97895L40.2689 8.86815L28.4199 21.0583ZM40.5282 24.51L54.1343 34.702L54.1407 34.6934L40.5282 24.51ZM40.8249 22.1133L57.1377 17.3288L57.0827 17.1413L57.0234 16.955L40.8249 22.1133ZM34.2416 13.755L19.1419 5.94481L14.6585 14.6126L19.8824 22.8552L34.2416 13.755ZM34.4132 13.4633L48.8292 22.4733L65.0854 -3.53667H34.4132V13.4633ZM34.4099 13.4633L20.8548 3.20369L0.222373 30.4633H34.4099V13.4633ZM40.0749 3.63834L24.8696 -3.9643L24.0188 -2.26259L23.5652 -0.414886L40.0749 3.63834ZM40.0782 3.625L23.7549 -1.1236L23.0782 1.20249V3.625H40.0782ZM39.8016 1.40834L53.3881 -8.80962L53.3723 -8.83057L53.3565 -8.85148L39.8016 1.40834ZM30.5932 2.45334L14.9052 -4.09543L14.8374 -3.93287L14.7729 -3.76894L30.5932 2.45334ZM25.3782 10.9367L8.38333 11.3533L9.27481 47.7204L36.6004 23.7063L25.3782 10.9367ZM25.3899 5.54834L8.39457 5.14975L8.39434 5.15962L25.3899 5.54834ZM15.0099 4.47334L28.3029 -6.12359L28.2968 -6.13129L28.2907 -6.13897L15.0099 4.47334ZM15.8766 12.66L3.44355 24.254L35.777 58.9273L32.844 11.6083L15.8766 12.66ZM10.7632 2.945L26.8591 -2.52519L26.829 -2.61372L26.798 -2.70192L10.7632 2.945ZM7.7349 3.00167V-13.9983L7.72509 -13.9983L7.7349 3.00167ZM8.40156 3.76334L24.4988 -1.7029L24.4677 -1.79435L24.4356 -1.88543L8.40156 3.76334ZM18.3749 12.845H35.3749L35.3749 12.8404L18.3749 12.845ZM18.3732 6.675L35.3732 6.67041L35.3731 6.21508L35.3486 5.76041L18.3732 6.675ZM17.0316 3L17.0509 -14L-18.1472 -14.0401L3.70425 13.5538L17.0316 3ZM22.8782 3.00667L39.7618 1.02037L37.9975 -13.9761L22.8976 -13.9933L22.8782 3.00667ZM22.8949 11.4783H39.8949V11.2203L39.8871 10.9624L22.8949 11.4783ZM27.6499 12.2233L39.7426 24.1718L40.0674 23.8431L40.3738 23.4973L27.6499 12.2233ZM32.9082 3.40167L17.2159 -3.13679L17.1826 -3.05687L17.1501 -2.97661L32.9082 3.40167ZM37.6532 3L53.7808 8.37588L61.2395 -14H37.6532V3ZM37.6499 3.015L21.5223 -2.36087L21.2245 -1.46764L21.0273 -0.546993L37.6499 3.015ZM32.3349 12.0733L45.9349 22.2733L46.0507 22.1189L46.163 21.9619L32.3349 12.0733ZM32.2782 12.1567L18.0055 2.92139L17.8908 3.09872L17.7805 3.27884L32.2782 12.1567ZM32.3532 15.4133L18.875 25.7737L23.9787 32.4133H32.3532V15.4133ZM32.3549 15.4133L45.4453 4.56703L40.3465 -1.58667H32.3549V15.4133ZM33.0699 16.1833L20.8364 27.9876L20.8484 28L20.8604 28.0124L33.0699 16.1833ZM38.4666 22.9833L41.1429 39.7713L58.8856 36.9428L55.0811 19.3835L38.4666 22.9833ZM34.1116 23.0017V40.0017H34.1298L34.1481 40.0016L34.1116 23.0017ZM30.1799 19.285L42.2533 7.31697L42.1448 7.20757L42.0344 7.10016L30.1799 19.285ZM22.8899 20.8067L39.8898 20.7543L39.8896 20.7009L39.8891 20.6476L22.8899 20.8067ZM22.8999 22.825L29.1215 38.6456L41.1927 33.8985L39.8019 21.0022L22.8999 22.825ZM3.49156 3.00667L1.95246 -13.9235L-14.8386 -12.3971L-13.4507 4.40606L3.49156 3.00667ZM21.2182 42.5C24.1233 42.5 28.4538 42.0975 32.7082 39.6566C37.7464 36.7661 40.6554 32.2056 41.7927 27.6814C42.6951 24.0919 42.3321 20.9057 42.3054 20.5788C42.2543 19.9548 42.3104 20.5284 42.317 21.088C42.3209 21.4248 42.4107 24.1858 41.0392 27.4201L9.73726 14.1465C8.92738 16.0564 8.61039 17.746 8.46884 18.8523C8.32476 19.9783 8.31255 20.9139 8.31933 21.4889C8.3263 22.0794 8.35853 22.5697 8.37726 22.83C8.38744 22.9714 8.39749 23.0955 8.40409 23.1758C8.41865 23.353 8.40844 23.2268 8.41857 23.3506C8.47224 24.0068 8.1797 21.9339 8.81872 19.392C9.19442 17.8975 9.90718 16.0845 11.2124 14.2891C12.5373 12.4666 14.1531 11.1038 15.7883 10.1656C18.7881 8.44457 21.2065 8.5 21.2182 8.5V42.5ZM42.3876 20.6393C42.3841 20.2195 42.3818 19.9338 42.3823 19.7002C42.3826 19.5911 42.3835 19.5371 42.3837 19.5236C42.3843 19.4985 42.383 19.593 42.3731 19.7639L8.43006 17.7961C8.36218 18.967 8.38471 20.4401 8.38884 20.9274L42.3876 20.6393ZM20.7903 35.1426C19.5678 34.7981 18.6211 34.3725 17.9883 34.0464C17.3466 33.7156 16.8894 33.4155 16.6334 33.2364C16.1504 32.8986 16.1035 32.7942 16.5709 33.2485L40.2689 8.86815C38.1723 6.83024 34.7286 3.74633 30.0128 2.41736L20.7903 35.1426ZM16.345 33.0248C16.7011 33.3841 17.0111 33.7258 17.4846 34.2555C17.8076 34.6169 18.7313 35.6711 19.7323 36.6256C20.8423 37.6841 22.7314 39.308 25.4282 40.5778C28.3164 41.9376 31.2821 42.5 34.1116 42.5V8.5C35.8269 8.5 37.8689 8.85506 39.9119 9.81702C41.7636 10.6889 42.8862 11.7242 43.1966 12.0202C43.398 12.2123 43.4891 12.3299 42.8345 11.5976C42.3304 11.0336 41.5179 10.1242 40.4948 9.09186L16.345 33.0248ZM34.1116 42.5H38.2132V8.5H34.1116V42.5ZM38.2132 42.5C45.0777 42.5 50.7138 39.2681 54.1343 34.702L26.9222 14.318C28.0957 12.7515 29.7671 11.1749 31.9974 10.0355C34.2474 8.88602 36.4444 8.5 38.2132 8.5V42.5ZM54.1407 34.6934C57.4576 30.2595 59.0929 23.9949 57.1377 17.3288L24.5121 26.8978C23.9939 25.1312 23.7537 22.8596 24.2444 20.3426C24.7294 17.8546 25.79 15.8315 26.9158 14.3266L54.1407 34.6934ZM57.0234 16.955C55.9535 13.5952 54.1474 10.973 53.2348 9.71033C52.1146 8.16057 50.9204 6.76422 49.9826 5.71629C49.0183 4.63876 48.1089 3.69101 47.5351 3.09429C47.2025 2.74849 47.068 2.60881 46.9828 2.51795C46.941 2.47337 47.0224 2.55855 47.1574 2.71298C47.2261 2.79155 47.3755 2.96413 47.5635 3.1992C47.7002 3.37013 48.1257 3.90529 48.6007 4.65476L19.8824 22.8552C20.3781 23.6374 20.8341 24.214 21.0105 24.4345C21.2382 24.7193 21.4366 24.9498 21.5628 25.0941C21.8129 25.3801 22.0439 25.6284 22.1815 25.7751C22.4552 26.067 22.7991 26.4233 23.0278 26.6611C23.5765 27.2317 24.1206 27.8021 24.6464 28.3895C25.1986 29.0066 25.5308 29.4221 25.679 29.6272C25.746 29.7199 25.6674 29.6219 25.5157 29.3551C25.3931 29.1395 24.9889 28.41 24.6264 27.2717L57.0234 16.955ZM49.3413 21.5652C49.2179 21.8036 49.1152 21.9868 49.0571 22.089C48.9943 22.1993 48.9438 22.2845 48.9131 22.3357C48.8557 22.4315 48.8125 22.5 48.8292 22.4733L19.9973 4.45335C19.9722 4.49336 19.8683 4.65931 19.748 4.86009C19.6542 5.01668 19.4096 5.42713 19.1419 5.94481L49.3413 21.5652ZM34.4132 -3.53667H34.4099V30.4633H34.4132V-3.53667ZM47.965 23.723C48.9356 22.4405 50.5235 20.0847 51.9213 17.7973C52.6491 16.6064 53.4687 15.2013 54.2018 13.7778C54.7644 12.6854 55.9296 10.3598 56.5846 7.69156L23.5652 -0.414886C23.792 -1.33879 24.0385 -1.90524 24.0511 -1.93493C24.0951 -2.03884 24.0829 -1.99904 23.9747 -1.78878C23.7547 -1.36165 23.3926 -0.722037 22.9097 0.068118C22.4433 0.831301 21.9524 1.59125 21.5295 2.22296C21.0627 2.92023 20.8252 3.2428 20.8548 3.20369L47.965 23.723ZM55.2802 11.241C56.0765 9.6483 57.0782 7.01395 57.0782 3.625H23.0782C23.0782 1.79753 23.373 0.27078 23.6766 -0.842001C23.9838 -1.96816 24.3932 -3.01141 24.8696 -3.9643L55.2802 11.241ZM56.4015 8.37361C58.2962 1.86084 56.7361 -4.35782 53.3881 -8.80962L26.215 11.6263C25.0345 10.0566 23.9716 7.99519 23.4865 5.50171C22.9955 2.97765 23.2288 0.68506 23.7549 -1.1236L56.4015 8.37361ZM53.3565 -8.85148C48.7701 -14.9109 42.215 -16.5 37.6366 -16.5V17.5C36.4115 17.5 34.5078 17.3142 32.3384 16.4039C30.0487 15.4431 27.8977 13.8495 26.2466 11.6682L53.3565 -8.85148ZM37.6366 -16.5H33.5349V17.5H37.6366V-16.5ZM33.5349 -16.5C25.3438 -16.5 18.0899 -11.7245 14.9052 -4.09543L46.2812 9.0021C45.4075 11.0951 43.7784 13.4207 41.1505 15.1657C38.5264 16.9082 35.7678 17.5 33.5349 17.5V-16.5ZM14.7729 -3.76894C14.7863 -3.80316 14.6902 -3.56499 14.4522 -3.08742C14.2313 -2.64414 13.9659 -2.15091 13.6934 -1.68703C13.4098 -1.20417 13.2025 -0.896384 13.1075 -0.765939C13.0648 -0.707202 13.1031 -0.765027 13.2249 -0.906233C13.3297 -1.0278 13.6408 -1.38014 14.1561 -1.83297L36.6004 23.7063C39.743 20.9445 41.9797 17.2872 43.0093 15.5345C44.3052 13.3284 45.5747 10.8086 46.4136 8.67561L14.7729 -3.76894ZM42.3731 10.5201C42.3267 8.62464 42.3569 7.18651 42.3854 5.93705L8.39434 5.15962C8.36292 6.5335 8.31646 8.62537 8.38333 11.3533L42.3731 10.5201ZM42.3852 5.94692C42.3921 5.65216 42.4364 4.38601 42.4079 3.25274C42.3794 2.11983 42.2733 -0.148448 41.5216 -2.71446C40.722 -5.44393 38.9201 -9.41013 34.878 -12.5295C30.7881 -15.6856 26.3213 -16.5 22.9882 -16.5V17.5C20.9826 17.5 17.4873 16.9969 14.106 14.3876C10.7725 11.815 9.41636 8.63123 8.89281 6.84405C8.63298 5.95709 8.52518 5.2506 8.47687 4.84693C8.42771 4.4362 8.42009 4.16366 8.41868 4.10773C8.41722 4.04956 8.41953 4.07867 8.41578 4.27952C8.41055 4.56004 8.40612 4.65706 8.39457 5.14975L42.3852 5.94692ZM22.9882 -16.5H16.5416V17.5H22.9882V-16.5ZM16.5416 -16.5C9.94039 -16.5 3.12232 -13.0269 -0.456189 -6.39308C-4.71729 1.50609 -2.48954 9.8062 1.72912 15.0856L28.2907 -6.13897C30.786 -3.0162 32.9479 3.29725 29.4676 9.74892C26.67 14.9352 21.4794 17.5 16.5416 17.5V-16.5ZM1.71685 15.0703C1.39013 14.6604 0.94374 14.0393 0.49898 13.2135C0.0397728 12.3608 -0.342434 11.4297 -0.621037 10.4463C-0.893656 9.48406 -1.0133 8.66108 -1.06742 8.07524C-1.11803 7.52722 -1.11299 7.15732 -1.11268 7.12826C-1.11262 7.12181 -1.11344 7.18391 -1.12934 7.57708C-1.14247 7.90183 -1.16448 8.42629 -1.17898 9.01789C-1.20966 10.2693 -1.20824 11.8183 -1.09088 13.7117L32.844 11.6083C32.7287 9.74755 32.857 10.1564 32.8854 7.49008C32.8976 6.34574 32.8794 3.95974 32.0915 1.17867C31.2331 -1.85126 29.7922 -4.25547 28.3029 -6.12359L1.71685 15.0703ZM28.3096 1.06602C28.7793 1.56972 28.9399 1.83757 28.8174 1.65779C28.7397 1.54371 28.5676 1.27562 28.3353 0.853648C27.8648 -0.00119478 27.3161 -1.18034 26.8591 -2.52519L-5.33264 8.4152C-3.25521 14.528 0.0168184 20.5793 3.44355 24.254L28.3096 1.06602ZM26.798 -2.70192C26.3516 -3.96936 25.0197 -7.64675 21.6737 -10.9145C17.6935 -14.8015 12.6254 -16.4983 7.7349 -16.4983V17.5017C4.74935 17.5017 0.972107 16.3924 -2.08178 13.4099C-3.36002 12.1616 -4.1401 10.9356 -4.58418 10.1144C-5.01408 9.31939 -5.22762 8.71651 -5.27149 8.59192L26.798 -2.70192ZM7.7349 -16.4983H3.63323V17.5017H7.7349V-16.4983ZM3.63323 -16.4983C-0.17451 -16.4983 -5.368 -15.438 -9.77966 -11.4111C-14.3933 -7.19983 -16.0234 -1.68703 -16.0234 2.92667H17.9766C17.9766 6.02204 16.8431 10.3223 13.142 13.7007C9.64279 16.8946 5.77763 17.5017 3.63323 17.5017V-16.4983ZM-16.0234 2.92667C-16.0234 5.69334 -15.4011 8.15043 -15.0788 9.33571C-14.65 10.9129 -14.0862 12.5568 -13.4404 14.1794C-12.1551 17.4084 -10.2874 21.1975 -7.81285 24.9139C-3.55683 31.3058 5.94029 42.5 21.2182 42.5V8.5C22.5515 8.5 23.1671 9.05008 22.8315 8.80097C22.3914 8.47438 21.5275 7.63195 20.4876 6.07026C19.4884 4.56956 18.6757 2.92845 18.149 1.60532C17.8889 0.951766 17.7638 0.539155 17.7302 0.415608C17.7134 0.353837 17.7506 0.478106 17.8008 0.760048C17.8335 0.943269 17.9766 1.75273 17.9766 2.92667H-16.0234ZM7.7349 20.0017C8.43196 20.0017 6.55411 20.0771 4.56432 19.6722C1.44249 19.037 -1.80018 17.4306 -4.38633 14.6299C-6.31825 12.5378 -7.18852 10.4826 -7.34162 10.1324C-7.57508 9.5983 -7.7082 9.19724 -7.63251 9.4121L24.4356 -1.88543C24.3772 -2.0514 24.1388 -2.73809 23.8117 -3.48636C23.565 -4.05079 22.6126 -6.24879 20.5928 -8.43616C17.9187 -11.332 14.5823 -12.9861 11.3435 -13.6451C10.0707 -13.9041 9.03921 -13.9625 8.55557 -13.9825C8.29016 -13.9934 8.07491 -13.9963 7.95552 -13.9974C7.84265 -13.9985 7.74015 -13.9983 7.7349 -13.9983V20.0017ZM-7.69565 9.22958C-6.54271 12.6248 -4.71931 16.7755 -2.51282 20.3866C-1.4394 22.1433 0.132335 24.4508 2.22647 26.5367C3.6747 27.9793 8.6158 32.6783 16.3666 32.6783V-1.32167C19.8162 -1.32167 22.3641 -0.187853 23.7143 0.578406C25.0742 1.35013 25.9021 2.13043 26.2209 2.44793C26.8259 3.05059 26.8794 3.28024 26.4997 2.65883C25.7999 1.51362 24.9775 -0.293118 24.4988 -1.7029L-7.69565 9.22958ZM16.3666 32.6783C19.917 32.6783 23.9217 31.7108 27.5164 29.1005C30.9811 26.5847 32.8609 23.418 33.85 21.0089C35.5567 16.852 35.3749 12.8551 35.3749 12.845H1.3749C1.3749 13.6099 1.19313 11.0296 2.39767 8.09573C3.13574 6.29803 4.63905 3.69439 7.53889 1.5887C10.5687 -0.611392 13.8203 -1.32167 16.3666 -1.32167V32.6783ZM35.3749 12.8404L35.3732 6.67041L1.37323 6.67959L1.3749 12.8496L35.3749 12.8404ZM35.3486 5.76041C34.9836 -1.01435 32.1254 -5.32308 30.3589 -7.55379L3.70425 13.5538C3.71702 13.5699 3.48613 13.2825 3.20933 12.8598C2.91894 12.4163 2.6002 11.8617 2.30924 11.207C1.6955 9.82591 1.44971 8.55213 1.39785 7.58959L35.3486 5.76041ZM17.0122 20L22.8588 20.0067L22.8976 -13.9933L17.0509 -14L17.0122 20ZM5.99467 4.99297C5.95921 4.66404 5.91763 4.16342 5.90683 3.99232C5.90107 3.88739 5.89287 3.71168 5.89008 3.64105C5.88498 3.50421 5.88269 3.39717 5.88182 3.35472C5.87988 3.25939 5.87922 3.18558 5.87903 3.1646C5.87855 3.11008 5.87848 3.06984 5.87847 3.06579C5.87843 3.04788 5.87846 3.04301 5.87843 3.06432C5.87838 3.10087 5.87822 3.16393 5.87793 3.25934C5.87735 3.4492 5.87642 3.71479 5.8753 4.055C5.8731 4.72559 5.87035 5.64236 5.86908 6.61336C5.86675 8.39085 5.86749 10.8339 5.90273 11.9943L39.8871 10.9624C39.8871 10.9625 39.887 10.9591 39.8868 10.9518C39.8866 10.9445 39.8863 10.9343 39.886 10.921C39.8854 10.8938 39.8847 10.8577 39.8839 10.8117C39.8822 10.7186 39.8805 10.6002 39.8789 10.4552C39.8757 10.164 39.8732 9.80497 39.8715 9.39263C39.8681 8.56862 39.8678 7.5991 39.869 6.6579C39.8703 5.72036 39.8729 4.82972 39.8751 4.16652C39.8762 3.83983 39.8772 3.55692 39.8778 3.36322C39.8781 3.26686 39.8783 3.17939 39.8784 3.11246C39.8784 3.08203 39.8785 3.03718 39.8784 2.99179C39.8783 2.974 39.8782 2.92314 39.8777 2.86122C39.8775 2.83654 39.8768 2.75983 39.8748 2.66241C39.8739 2.61893 39.8716 2.51104 39.8665 2.37357C39.8637 2.30262 39.8554 2.12665 39.8497 2.02151C39.8389 1.8502 39.7973 1.34941 39.7618 1.02037L5.99467 4.99297ZM5.8949 11.4783C5.8949 15.7696 7.7877 26.4819 19.0727 30.0406C29.5503 33.3448 37.2577 26.6867 39.7426 24.1718L15.5572 0.274878C15.816 0.0128725 16.9191 -1.06198 18.9634 -1.94185C21.1029 -2.86265 24.8773 -3.77939 29.2983 -2.38523C38.9304 0.652275 39.8949 9.52543 39.8949 11.4783H5.8949ZM40.3738 23.4973C45.5599 17.6442 48.5766 10.0016 48.6663 9.77995L17.1501 -2.97661C17.2479 -3.21811 16.9341 -2.42756 16.3569 -1.33308C16.0744 -0.797295 15.7746 -0.276334 15.4803 0.178138C15.1726 0.653227 14.9754 0.893611 14.926 0.949373L40.3738 23.4973ZM48.6005 9.94013C48.4929 10.1983 46.9955 14.191 42.7263 17.1146C38.4531 20.041 34.2509 20 33.5349 20V-14C32.4256 -14 27.9725 -13.9901 23.5155 -10.9379C19.0627 -7.88854 17.4485 -3.69501 17.2159 -3.13679L48.6005 9.94013ZM21.5256 -2.37587C21.3911 -1.97227 21.2852 -1.60409 21.2015 -1.28286C21.1597 -1.1223 21.1233 -0.972821 21.0916 -0.836308C21.06 -0.699898 21.0328 -0.575164 21.0098 -0.464414C20.9867 -0.353803 20.9673 -0.255103 20.9514 -0.171304C20.9355 -0.0877291 20.9224 -0.0158406 20.9125 0.0401472C20.9075 0.0683468 20.9032 0.0934279 20.8995 0.114635C20.8959 0.13579 20.8928 0.153958 20.8904 0.168079C20.888 0.18208 20.8861 0.193435 20.8849 0.200373C20.8843 0.203916 20.8839 0.206795 20.8836 0.208569C20.8834 0.209474 20.8833 0.210214 20.8832 0.210677C20.8832 0.210913 20.8831 0.211108 20.8831 0.211233C20.8831 0.211349 20.8831 0.211452 20.8831 0.211458C20.883 0.211757 20.8832 0.210508 20.8835 0.209038C20.8837 0.20742 20.8842 0.204697 20.8848 0.201311C20.8859 0.194685 20.8877 0.183643 20.8901 0.169954C20.8924 0.156146 20.8954 0.13829 20.899 0.117447C20.9026 0.0965528 20.9069 0.0717841 20.9119 0.043897C20.9217 -0.0114658 20.9346 -0.0827293 20.9504 -0.165679C20.9662 -0.248853 20.9855 -0.346929 21.0084 -0.456914C21.0314 -0.567039 21.0584 -0.691148 21.0898 -0.826933C21.1213 -0.962822 21.1576 -1.11167 21.1993 -1.27161C21.2826 -1.59159 21.3882 -1.95852 21.5223 -2.36087L53.7775 8.39088C53.912 7.98728 54.018 7.61909 54.1016 7.29787C54.1434 7.1373 54.1799 6.98783 54.2115 6.85131C54.2431 6.7149 54.2703 6.59017 54.2934 6.47942C54.3164 6.36881 54.3358 6.27011 54.3518 6.18631C54.3677 6.10274 54.3807 6.03085 54.3906 5.97486C54.3956 5.94666 54.4 5.92158 54.4036 5.90037C54.4073 5.87922 54.4104 5.86105 54.4128 5.84693C54.4151 5.83293 54.417 5.82157 54.4182 5.81463C54.4188 5.81109 54.4193 5.80821 54.4196 5.80644C54.4197 5.80553 54.4198 5.80479 54.4199 5.80433C54.42 5.80409 54.42 5.8039 54.42 5.80377C54.42 5.80366 54.42 5.80355 54.42 5.80355C54.4201 5.80325 54.4199 5.8045 54.4196 5.80597C54.4194 5.80759 54.4189 5.81031 54.4184 5.81369C54.4172 5.82032 54.4154 5.83136 54.4131 5.84505C54.4107 5.85886 54.4077 5.87672 54.4041 5.89756C54.4005 5.91845 54.3962 5.94322 54.3912 5.97111C54.3814 6.02647 54.3685 6.09773 54.3527 6.18068C54.3369 6.26386 54.3176 6.36193 54.2947 6.47192C54.2718 6.58204 54.2448 6.70615 54.2133 6.84194C54.1818 6.97783 54.1455 7.12668 54.1038 7.28662C54.0205 7.60659 53.915 7.97353 53.7808 8.37588L21.5256 -2.37587ZM21.0273 -0.546993C21.1954 -1.33189 21.3871 -1.91698 21.4937 -2.22198C21.6093 -2.55294 21.7072 -2.78711 21.7558 -2.89956C21.8467 -3.11035 21.8788 -3.15792 21.7932 -2.99532C21.6234 -2.67274 21.3055 -2.11756 20.8426 -1.36615C19.9159 0.138001 18.8958 1.64078 18.5068 2.18473L46.163 21.9619C47.0123 20.7742 48.4622 18.6228 49.7897 16.4682C50.4538 15.3903 51.2091 14.1149 51.8775 12.8456C52.2493 12.1395 53.6301 9.57522 54.2725 6.577L21.0273 -0.546993ZM18.7349 1.87333C18.4925 2.19651 18.3064 2.46795 18.1936 2.63588C18.1358 2.72198 18.0889 2.79338 18.0589 2.83925C18.0311 2.88179 18.0068 2.91939 18.0055 2.92139L46.5509 21.3919C46.5735 21.3571 46.5037 21.4657 46.4183 21.5929C46.3242 21.7329 46.1573 21.9768 45.9349 22.2733L18.7349 1.87333ZM17.7805 3.27884C17.3334 4.00897 15.1893 7.37606 14.7764 12.1287C14.2916 17.7092 16.2954 22.4178 18.875 25.7737L45.8315 5.05296C47.3478 7.02557 49.0415 10.5508 48.6488 15.0713C48.4802 17.0126 47.9665 18.5305 47.5554 19.4976C47.1699 20.4043 46.7922 21.008 46.776 21.0345L17.7805 3.27884ZM32.3532 32.4133H32.3549V-1.58667H32.3532V32.4133ZM19.2645 26.2596C19.8296 26.9417 20.5125 27.6519 20.8364 27.9876L45.3034 4.37905C45.1795 4.25062 45.1065 4.17277 45.0814 4.14565C45.0686 4.13183 45.0858 4.15016 45.1253 4.19429C45.1458 4.21722 45.1814 4.25726 45.2281 4.31098C45.252 4.33847 45.2819 4.37308 45.3166 4.41381C45.3508 4.45405 45.3945 4.50579 45.4453 4.56703L19.2645 26.2596ZM20.8604 28.0124C21.1485 28.3098 21.5181 28.691 21.9444 29.1456C22.3767 29.6066 22.8062 30.0786 23.1758 30.5083C23.3576 30.7197 23.4991 30.8911 23.602 31.0205C23.7108 31.1573 23.7341 31.194 23.697 31.1409C23.6797 31.1161 23.4723 30.8218 23.1996 30.313C23.057 30.0472 22.8443 29.6259 22.6191 29.0736C22.4029 28.5432 22.0917 27.6893 21.8521 26.5831L55.0811 19.3835C54.2022 15.3271 52.0162 12.3098 51.5778 11.6817C50.6792 10.3942 49.7096 9.21764 48.9557 8.34087C47.4198 6.55466 45.825 4.91741 45.2794 4.35425L20.8604 28.0124ZM35.7902 6.19532C36.2119 6.1281 36.6414 6.07717 37.0708 6.0442C37.4411 6.01577 37.7207 6.00791 37.8269 6.00537C37.9351 6.00277 37.9925 6.00298 37.9416 6.00318C37.8993 6.00335 37.8247 6.0034 37.6867 6.00315C37.1351 6.00215 36.056 5.99744 34.075 6.0017L34.1481 40.0016C36.0421 39.9976 37.0255 40.002 37.6252 40.0031C37.8541 40.0035 38.2624 40.0047 38.6411 39.9956C39.156 39.9833 40.0463 39.9462 41.1429 39.7713L35.7902 6.19532ZM34.1116 6.00166C38.6025 6.00166 41.8255 7.82236 43.4143 8.96386C44.1583 9.49837 44.6687 9.96996 44.8967 10.1878C45.1338 10.4143 45.2695 10.5637 45.2418 10.5337C45.2169 10.5068 45.1561 10.4398 44.9787 10.2407C44.8286 10.0723 44.5919 9.80593 44.3369 9.52341C43.7994 8.92791 43.1092 8.18042 42.2533 7.31697L18.1065 31.253C19.1261 32.2816 19.0035 32.2379 20.2772 33.6155C20.6256 33.9923 21.8537 35.3388 23.5764 36.5765C25.5951 38.0268 29.2082 40.0017 34.1116 40.0017V6.00166ZM42.0344 7.10016C40.0731 5.19204 34.1341 -0.748334 25.2216 -0.748334V33.2517C21.8076 33.2517 19.4286 32.0369 18.488 31.4613C17.7042 30.9817 17.5652 30.7303 18.3254 31.4698L42.0344 7.10016ZM25.2216 -0.748334C22.3907 -0.748334 18.2191 -0.178713 14.1838 2.58185C9.97008 5.46446 7.89123 9.36733 6.92421 12.348C6.05727 15.0201 5.93495 17.3825 5.89762 18.4476C5.86097 19.4933 5.88891 20.7806 5.89064 20.9657L39.8891 20.6476C39.8822 19.9056 39.8827 20.2762 39.8787 19.7608C39.8771 19.5581 39.8798 19.5527 39.8768 19.6385C39.8738 19.7225 39.8607 20.0553 39.7955 20.539C39.7311 21.0171 39.5913 21.8337 39.2647 22.8403C38.5661 24.9939 36.9157 28.2255 33.381 30.6437C30.0247 32.9398 26.7824 33.2517 25.2216 33.2517V-0.748334ZM5.88998 20.8591C5.89406 22.1855 5.89186 22.5927 5.89142 22.6685C5.89139 22.675 5.89135 22.6806 5.89131 22.6877C5.89128 22.6931 5.89121 22.7044 5.89115 22.7155C5.8911 22.7243 5.89096 22.7503 5.8909 22.7815C5.89087 22.7941 5.89056 22.8939 5.89198 23.0182C5.89256 23.0691 5.89451 23.2366 5.90238 23.4506C5.90612 23.5523 5.91498 23.7729 5.93518 24.0523C5.94543 24.1941 5.9636 24.4218 5.99462 24.7013C6.02046 24.9343 6.08259 25.4595 6.21278 26.119C6.28086 26.4469 6.47005 27.2262 6.59712 27.6757C6.81155 28.3453 7.49965 30.0455 8.01404 31.0535C9.11007 32.7812 13.2894 36.8558 16.6556 38.6421C21.9269 39.7996 30.9851 37.7763 34.233 35.4902C35.7376 33.9609 37.6557 31.2533 38.2031 30.2121C38.5049 29.5504 38.9424 28.4263 39.0938 27.9717C39.371 27.0989 39.5141 26.3965 39.565 26.1401C39.683 25.5464 39.7419 25.0767 39.7573 24.955C39.7817 24.7618 39.7977 24.6079 39.8056 24.5287C39.8216 24.37 39.8318 24.2455 39.8344 24.2142C39.8381 24.1689 39.8409 24.1324 39.8411 24.1294C39.8433 24.1007 39.8392 24.1546 39.8352 24.204C39.8313 24.2514 39.8013 24.6366 39.7345 25.1222C39.7046 25.3403 39.6236 25.9088 39.4586 26.624C39.3768 26.979 39.216 27.6279 38.9394 28.418C38.7972 28.8243 38.5815 29.3915 38.2719 30.0485C37.9776 30.6728 37.4763 31.6406 36.6978 32.7235C35.9653 33.7425 34.5719 35.4491 32.3145 36.9517C31.1363 37.736 29.6491 38.5128 27.8571 39.0597C26.0365 39.6153 24.0507 39.8864 21.9844 39.7756C17.7577 39.5488 14.5571 37.8277 12.5563 36.2947C10.6475 34.8322 9.46457 33.2818 8.83547 32.3562C8.16434 31.3687 7.72326 30.4947 7.45784 29.919C7.17975 29.3158 6.98254 28.7948 6.84992 28.4157C6.59203 27.6786 6.43768 27.0723 6.35665 26.7311C6.19412 26.0465 6.11098 25.502 6.07846 25.2804C6.03793 25.0043 6.0123 24.7813 5.9979 24.6478L39.8019 21.0022C39.7934 20.9237 39.7828 20.8302 39.7697 20.7249C39.7568 20.6208 39.7398 20.4915 39.7181 20.3434C39.6968 20.1982 39.6668 20.0067 39.6263 19.7826C39.6057 19.6686 39.5806 19.5366 39.5505 19.3899C39.5206 19.2442 39.4832 19.0712 39.4371 18.877C39.3914 18.6846 39.3318 18.4487 39.2561 18.1806C39.1815 17.9166 39.0789 17.5776 38.9425 17.1878C38.8733 16.9899 38.7905 16.7651 38.6928 16.5193C38.5954 16.2745 38.4767 15.9926 38.334 15.683C38.192 15.375 38.0146 15.0145 37.797 14.6182C37.5809 14.2246 37.3035 13.7563 36.9558 13.2447C36.8156 13.0417 36.5149 12.6262 36.3539 12.4141C36.1731 12.1839 35.7839 11.7147 35.575 11.4764C35.3397 11.2183 34.8324 10.6961 34.5597 10.4331C34.2523 10.1502 33.59 9.58558 33.2344 9.30551C32.2393 8.54313 30.95 7.73039 29.3548 7.07509C28.7295 6.83255 27.4234 6.41421 26.7439 6.24142C26.0233 6.0903 24.5529 5.88103 23.8057 5.82441C23.0423 5.80064 21.5264 5.85518 20.7771 5.93245C20.041 6.04129 18.6178 6.34687 17.9327 6.54035C16.1407 7.08727 14.6534 7.86412 13.4751 8.64845C13.0528 8.93882 12.2715 9.52806 11.9116 9.82433C11.5864 10.1067 10.9868 10.6675 10.7113 10.9441C10.4629 11.2049 10.0048 11.7163 9.79438 11.9659C9.60421 12.2 9.25299 12.656 9.09128 12.8771C8.9446 13.0844 8.67298 13.4865 8.54753 13.681C8.43321 13.8633 8.22083 14.2165 8.12239 14.387C7.87476 14.8218 7.67496 15.2173 7.51671 15.553C7.35755 15.8907 7.22642 16.1978 7.11993 16.4628C7.01297 16.729 6.9232 16.9719 6.84871 17.1847C6.77397 17.3982 6.71024 17.594 6.65639 17.7677C6.60239 17.9418 6.55572 18.1023 6.51567 18.2463C6.43655 18.5307 6.37515 18.7801 6.32864 18.9818C6.28164 19.1855 6.24389 19.3664 6.21411 19.5175C6.18412 19.6697 6.15938 19.8062 6.13927 19.9231C6.09978 20.1528 6.07112 20.3477 6.05124 20.4923C6.03092 20.6401 6.01538 20.7675 6.00391 20.8672C5.9923 20.9682 5.98311 21.056 5.97609 21.1264C5.96244 21.2634 5.9532 21.373 5.94836 21.4321C5.94576 21.4639 5.94376 21.4895 5.94265 21.5037C5.94217 21.5099 5.9404 21.533 5.94168 21.5163C5.94181 21.5146 5.94451 21.4794 5.94813 21.4352C5.95011 21.4111 5.95325 21.3734 5.95734 21.3272C5.96122 21.2833 5.96772 21.2117 5.97661 21.1234C5.98119 21.0779 5.98717 21.0203 5.99458 20.9535C6.00185 20.8879 6.0119 20.8007 6.02486 20.698C6.03737 20.5988 6.05635 20.4554 6.08247 20.2828C6.09362 20.2102 6.11917 20.0511 6.13369 19.9647C6.15136 19.8632 6.19288 19.6375 6.21704 19.5135C6.24773 19.3626 6.32269 19.0202 6.3678 18.829C6.42895 18.5842 6.58764 18.0103 6.6882 17.6821C6.83964 17.2275 7.27709 16.1034 7.57893 15.4418C8.12632 14.4005 10.0444 11.693 11.549 10.1636C14.7969 7.87752 23.855 5.85429 29.1264 7.01176C32.4925 8.79803 36.6719 12.8727 37.7679 14.6003C38.2823 15.6084 38.9704 17.3086 39.1848 17.9782C39.3119 18.4276 39.5011 19.2069 39.5691 19.5347C39.6154 19.7783 39.6888 20.2128 39.7173 20.4034C39.7384 20.5542 39.7731 20.8286 39.7873 20.9522C39.7983 21.054 39.8169 21.242 39.8248 21.3282C39.8311 21.4012 39.842 21.5376 39.8467 21.6009C39.8576 21.7515 39.8647 21.8777 39.8692 21.968C39.8739 22.0608 39.8772 22.1403 39.8794 22.2016C39.8838 22.321 39.8861 22.4178 39.8873 22.4776C39.8886 22.5411 39.8893 22.5939 39.8898 22.6307C39.8906 22.702 39.8908 22.7582 39.8908 22.7856C39.8909 22.8165 39.8908 22.841 39.8908 22.8545C39.8908 22.8689 39.8907 22.88 39.8907 22.8859C39.8907 22.892 39.8907 22.8964 39.8907 22.8978C39.8907 22.8995 39.8907 22.8995 39.8907 22.8913C39.8907 22.8849 39.8908 22.8749 39.8909 22.8632C39.8921 22.6481 39.8941 22.1312 39.8898 20.7543L5.88998 20.8591ZM16.6783 7.00438C18.1648 6.4198 19.3931 6.19115 20.0877 6.09499C20.7866 5.99823 21.2109 6 21.2182 6V40C23.1576 40 26.0636 39.8481 29.1215 38.6456L16.6783 7.00438ZM21.2182 6C23.2874 6 24.3964 6.85748 24.3096 6.79153C24.15 6.67025 23.5063 6.08075 22.6167 4.75145C21.7752 3.49401 21.0567 2.08757 20.566 0.916177C20.3255 0.341896 20.1963 -0.041216 20.152 -0.185932C20.1302 -0.257389 20.1554 -0.184842 20.2004 0.0143118C20.2301 0.145932 20.3616 0.732564 20.4339 1.60728L-13.4507 4.40606C-13.149 8.05976 -11.7317 11.8135 -10.7939 14.0521C-9.58836 16.9302 -7.87459 20.3216 -5.63944 23.6615C-2.0128 29.0806 6.79099 40 21.2182 40V6ZM5.03067 19.9369C4.65411 19.9711 4.36089 19.9845 4.27642 19.9884C4.15056 19.9941 4.05197 19.9971 4.00073 19.9985C3.89782 20.0014 3.82511 20.0024 3.81244 20.0026C3.77975 20.003 3.78398 20.0028 3.85715 20.0025C3.99335 20.0019 4.21645 20.0017 4.56386 20.0017C5.23493 20.0017 6.29471 20.0025 7.7447 20.0017L7.72509 -13.9983C6.28508 -13.9975 5.26903 -13.9983 4.56385 -13.9983C4.22314 -13.9983 3.933 -13.9981 3.71655 -13.9972C3.61339 -13.9968 3.48143 -13.9961 3.35091 -13.9943C3.28932 -13.9935 3.17729 -13.9918 3.04442 -13.988C2.97819 -13.9862 2.86696 -13.9827 2.73078 -13.9765C2.63598 -13.9722 2.33474 -13.9583 1.95246 -13.9235L5.03067 19.9369ZM33.5349 20H37.6532V-14H33.5349V20Z" fill="#181818" mask="url(#path-1-inside-1_18_482)"/>
</svg>
