<svg width="40" height="40" viewBox="0 0 40 40" fill="none" xmlns="http://www.w3.org/2000/svg">
<mask id="path-1-inside-1_18_481" fill="white">
<path d="M34.0715 5.80872C30.3139 2.06512 25.3151 0.00213623 19.995 0C14.6868 0 9.68005 2.06116 5.89771 5.80383C2.10864 9.55292 0.0200195 14.5352 0.0151367 19.8148V19.8245C0.0157471 23.02 0.855286 26.2436 2.44891 29.1861L0.0697632 40L11.0082 37.5119C13.7786 38.9081 16.8697 39.6442 19.9874 39.6454H19.9953C25.3026 39.6454 30.3093 37.5839 34.0923 33.8409C37.8847 30.0888 39.9742 25.1129 39.9767 19.83C39.9782 14.5844 37.8813 9.6048 34.0715 5.80872ZM19.995 36.5234H19.988C17.1886 36.5222 14.4149 35.8194 11.967 34.4904L11.4498 34.2096L4.17621 35.864L5.7561 28.6838L5.45154 28.1586C3.93726 25.5472 3.13708 22.6645 3.13708 19.8212C3.14288 10.618 10.7045 3.12195 19.9944 3.12195C24.4823 3.12378 28.6992 4.86359 31.8682 8.02032C35.085 11.2259 36.856 15.4196 36.8544 19.8291C36.8508 29.0344 29.2876 36.5234 19.995 36.5234Z"/>
<path d="M14.5583 11.0832H13.6824C13.3776 11.0832 12.8826 11.1973 12.4639 11.6529C12.0449 12.1089 10.8641 13.2109 10.8641 15.4521C10.8641 17.6933 12.502 19.8588 12.7303 20.1631C12.9589 20.467 15.8919 25.2131 20.5373 27.039C24.3981 28.5563 25.1839 28.2545 26.0216 28.1785C26.8596 28.1028 28.7258 27.0768 29.1066 26.0133C29.4875 24.9497 29.4875 24.0379 29.3734 23.8475C29.2589 23.6576 28.9541 23.5438 28.4972 23.3161C28.04 23.0882 25.8001 21.9676 25.3811 21.8153C24.962 21.6636 24.6575 21.5876 24.3526 22.0439C24.0477 22.4992 23.1502 23.5527 22.8835 23.8566C22.6171 24.1609 22.3504 24.199 21.8932 23.971C21.436 23.7425 19.9791 23.253 18.2332 21.7015C16.8743 20.4939 15.9313 18.954 15.6646 18.498C15.3981 18.0424 15.6362 17.7958 15.8654 17.5685C16.0707 17.3646 16.3482 17.0857 16.5767 16.8199C16.805 16.5538 16.87 16.3639 17.0226 16.06C17.1749 15.756 17.0986 15.4899 16.9844 15.2622C16.87 15.0343 15.9929 12.7818 15.5864 11.8809C15.244 11.1222 14.8839 11.0966 14.5583 11.0832Z"/>
</mask>
<path d="M34.0715 5.80872C30.3139 2.06512 25.3151 0.00213623 19.995 0C14.6868 0 9.68005 2.06116 5.89771 5.80383C2.10864 9.55292 0.0200195 14.5352 0.0151367 19.8148V19.8245C0.0157471 23.02 0.855286 26.2436 2.44891 29.1861L0.0697632 40L11.0082 37.5119C13.7786 38.9081 16.8697 39.6442 19.9874 39.6454H19.9953C25.3026 39.6454 30.3093 37.5839 34.0923 33.8409C37.8847 30.0888 39.9742 25.1129 39.9767 19.83C39.9782 14.5844 37.8813 9.6048 34.0715 5.80872ZM19.995 36.5234H19.988C17.1886 36.5222 14.4149 35.8194 11.967 34.4904L11.4498 34.2096L4.17621 35.864L5.7561 28.6838L5.45154 28.1586C3.93726 25.5472 3.13708 22.6645 3.13708 19.8212C3.14288 10.618 10.7045 3.12195 19.9944 3.12195C24.4823 3.12378 28.6992 4.86359 31.8682 8.02032C35.085 11.2259 36.856 15.4196 36.8544 19.8291C36.8508 29.0344 29.2876 36.5234 19.995 36.5234Z" fill="#181818"/>
<path d="M14.5583 11.0832H13.6824C13.3776 11.0832 12.8826 11.1973 12.4639 11.6529C12.0449 12.1089 10.8641 13.2109 10.8641 15.4521C10.8641 17.6933 12.502 19.8588 12.7303 20.1631C12.9589 20.467 15.8919 25.2131 20.5373 27.039C24.3981 28.5563 25.1839 28.2545 26.0216 28.1785C26.8596 28.1028 28.7258 27.0768 29.1066 26.0133C29.4875 24.9497 29.4875 24.0379 29.3734 23.8475C29.2589 23.6576 28.9541 23.5438 28.4972 23.3161C28.04 23.0882 25.8001 21.9676 25.3811 21.8153C24.962 21.6636 24.6575 21.5876 24.3526 22.0439C24.0477 22.4992 23.1502 23.5527 22.8835 23.8566C22.6171 24.1609 22.3504 24.199 21.8932 23.971C21.436 23.7425 19.9791 23.253 18.2332 21.7015C16.8743 20.4939 15.9313 18.954 15.6646 18.498C15.3981 18.0424 15.6362 17.7958 15.8654 17.5685C16.0707 17.3646 16.3482 17.0857 16.5767 16.8199C16.805 16.5538 16.87 16.3639 17.0226 16.06C17.1749 15.756 17.0986 15.4899 16.9844 15.2622C16.87 15.0343 15.9929 12.7818 15.5864 11.8809C15.244 11.1222 14.8839 11.0966 14.5583 11.0832Z" fill="#181818"/>
<path d="M34.0715 5.80872L46.0706 -6.23378L46.0698 -6.23457L34.0715 5.80872ZM19.995 0L20.0018 -17H19.995V0ZM5.89771 5.80383L17.8546 17.8882L17.855 17.8879L5.89771 5.80383ZM0.0151367 19.8148L-16.9849 19.799L-16.9849 19.8069V19.8148H0.0151367ZM0.0151367 19.8245H-16.9849V19.8278L0.0151367 19.8245ZM2.44891 29.1861L19.0518 32.8389L20.412 26.6565L17.3974 21.0902L2.44891 29.1861ZM0.0697632 40L-16.5332 36.3472L-22.2915 62.5206L3.84034 56.5766L0.0697632 40ZM11.0082 37.5119L18.6589 22.3308L13.1992 19.5793L7.2376 20.9353L11.0082 37.5119ZM19.9874 39.6454L19.9807 56.6454H19.9874V39.6454ZM34.0923 33.8409L22.1358 21.7561L22.1355 21.7564L34.0923 33.8409ZM39.9767 19.83L56.9767 19.8379V19.835L39.9767 19.83ZM19.988 36.5234L19.9806 53.5234H19.988V36.5234ZM11.967 34.4904L20.0787 19.5504L20.0766 19.5493L11.967 34.4904ZM11.4498 34.2096L19.5594 19.2686L13.9277 16.2118L7.67944 17.633L11.4498 34.2096ZM4.17621 35.864L-12.4266 32.2107L-18.1857 58.3843L7.94653 52.4406L4.17621 35.864ZM5.7561 28.6838L22.3589 32.337L23.7803 25.8774L20.4623 20.1557L5.7561 28.6838ZM5.45154 28.1586L-9.25478 36.6864L-9.25466 36.6866L5.45154 28.1586ZM3.13708 19.8212L-13.8629 19.8105V19.8212H3.13708ZM19.9944 3.12195L20.0013 -13.8781H19.9944V3.12195ZM31.8682 8.02032L43.8678 -4.02161L43.8658 -4.02367L31.8682 8.02032ZM36.8544 19.8291L53.8544 19.8359V19.835L36.8544 19.8291ZM14.5583 11.0832L15.2587 -5.9024L14.9087 -5.91683H14.5583V11.0832ZM12.4639 11.6529L24.9809 23.1562L24.9812 23.1558L12.4639 11.6529ZM12.7303 20.1631L-0.868072 30.3652L-0.862339 30.3729L-0.856598 30.3805L12.7303 20.1631ZM20.5373 27.039L14.3186 42.8607L14.3191 42.8609L20.5373 27.039ZM26.0216 28.1785L24.4925 11.2474L24.4858 11.248L26.0216 28.1785ZM29.3734 23.8475L43.9549 15.1079L43.9435 15.089L43.9321 15.0701L29.3734 23.8475ZM28.4972 23.3161L20.9108 38.5295L20.9149 38.5316L28.4972 23.3161ZM25.3811 21.8153L31.1879 5.83778L31.1776 5.83404L31.1673 5.83032L25.3811 21.8153ZM24.3526 22.0439L38.4785 31.5021L38.4829 31.4956L38.4873 31.489L24.3526 22.0439ZM22.8835 23.8566L10.1056 12.6439L10.0996 12.6507L10.0937 12.6575L22.8835 23.8566ZM21.8932 23.971L14.2906 39.1763L14.2987 39.1804L14.3068 39.1844L21.8932 23.971ZM18.2332 21.7015L29.5258 8.99403L29.5255 8.99377L18.2332 21.7015ZM15.6646 18.498L0.989237 27.0791L0.991015 27.0821L15.6646 18.498ZM15.8654 17.5685L27.8379 29.6374L27.8413 29.634L15.8654 17.5685ZM16.5767 16.8199L29.4663 27.904L29.4731 27.8961L29.4799 27.8882L16.5767 16.8199ZM17.0226 16.06L32.2156 23.687L32.2217 23.6748L17.0226 16.06ZM16.9844 15.2622L32.1815 7.64332L32.1775 7.63522L16.9844 15.2622ZM15.5864 11.8809L31.082 4.88899L31.0814 4.8876L15.5864 11.8809ZM46.0698 -6.23457C39.1174 -13.161 29.8028 -16.9961 20.0018 -17L19.9882 17C20.8274 17.0003 21.5104 17.2913 22.0732 17.852L46.0698 -6.23457ZM19.995 -17C10.1973 -17 0.897174 -13.164 -6.05957 -6.28019L17.855 17.8879C18.4629 17.2863 19.1762 17 19.995 17V-17ZM-6.05919 -6.28056C-13.0445 0.631048 -16.9757 9.94708 -16.9849 19.799L17.0151 19.8305C17.0158 19.1234 17.2618 18.4748 17.8546 17.8882L-6.05919 -6.28056ZM-16.9849 19.8278C-16.9837 25.9921 -15.3694 31.983 -12.4995 37.282L17.3974 21.0902C17.08 20.5042 17.0152 20.0479 17.0151 19.8213L-16.9849 19.8278ZM-14.154 25.5333L-16.5332 36.3472L16.6727 43.6528L19.0518 32.8389L-14.154 25.5333ZM3.84034 56.5766L14.7788 54.0885L7.2376 20.9353L-3.70081 23.4234L3.84034 56.5766ZM3.35742 52.693C8.50297 55.2862 14.2126 56.6431 19.9807 56.6454L19.994 22.6454C19.5268 22.6452 19.0542 22.53 18.6589 22.3308L3.35742 52.693ZM19.9874 56.6454H19.9953V22.6454H19.9874V56.6454ZM19.9953 56.6454C29.7935 56.6454 39.0929 52.8081 46.0491 45.9254L22.1355 21.7564C21.5257 22.3598 20.8118 22.6454 19.9953 22.6454V56.6454ZM46.0487 45.9258C53.0316 39.0171 56.9721 29.7073 56.9767 19.8379L22.9767 19.8222C22.9764 20.5185 22.7378 21.1605 22.1358 21.7561L46.0487 45.9258ZM56.9767 19.835C56.9796 9.94289 52.9931 0.663774 46.0706 -6.23378L22.0724 17.8512C22.7696 18.5458 22.9769 19.2258 22.9767 19.8251L56.9767 19.835ZM19.995 19.5234H19.988V53.5234H19.995V19.5234ZM19.9954 19.5234C20.013 19.5234 20.0199 19.5253 20.0222 19.5259C20.0246 19.5265 20.043 19.5311 20.0787 19.5504L3.85541 49.4303C8.80541 52.1179 14.3669 53.521 19.9806 53.5234L19.9954 19.5234ZM20.0766 19.5493L19.5594 19.2686L3.34018 49.1506L3.85745 49.4314L20.0766 19.5493ZM7.67944 17.633L0.405884 19.2873L7.94653 52.4406L15.2201 50.7862L7.67944 17.633ZM20.779 39.5172L22.3589 32.337L-10.8467 25.0306L-12.4266 32.2107L20.779 39.5172ZM20.4623 20.1557L20.1577 19.6305L-9.25466 36.6866L-8.95009 37.2118L20.4623 20.1557ZM20.1579 19.6307C20.1092 19.5467 20.101 19.508 20.107 19.5297C20.1131 19.5515 20.1371 19.6486 20.1371 19.8212H-13.8629C-13.8629 25.8452 -12.1755 31.6496 -9.25478 36.6864L20.1579 19.6307ZM20.1371 19.8319C20.1371 19.8478 20.1351 19.8785 20.127 19.9177C20.119 19.956 20.1077 19.9907 20.0953 20.0196C20.0716 20.0748 20.0507 20.0953 20.0496 20.0964C20.0485 20.0975 20.0434 20.103 20.0257 20.1104C20.0153 20.1148 20.0034 20.1185 19.9922 20.1208C19.98 20.1232 19.979 20.1219 19.9944 20.1219V-13.8781C1.45752 -13.8781 -13.8511 1.08555 -13.8629 19.8105L20.1371 19.8319ZM19.9874 20.1219C20.0106 20.122 20.0137 20.124 20.0007 20.1215C19.9879 20.1189 19.9673 20.1134 19.9426 20.1032C19.9179 20.0931 19.8967 20.0813 19.8809 20.0708C19.8649 20.0601 19.8619 20.0557 19.8706 20.0643L43.8658 -4.02367C37.5008 -10.3641 28.9679 -13.8744 20.0013 -13.8781L19.9874 20.1219ZM19.8685 20.0623C19.9115 20.1051 19.9286 20.1301 19.9299 20.1321C19.9313 20.1341 19.921 20.1191 19.9072 20.0863C19.8932 20.0533 19.8791 20.0102 19.8688 19.9598C19.8585 19.9091 19.8544 19.8619 19.8544 19.8232L53.8544 19.835C53.8576 10.7548 50.1796 2.26803 43.8678 -4.02161L19.8685 20.0623ZM19.8544 19.8223C19.8544 19.8065 19.8564 19.7753 19.8647 19.7353C19.8728 19.6963 19.8845 19.6605 19.8973 19.6306C19.9219 19.573 19.9442 19.5507 19.9466 19.5484C19.9488 19.5462 19.9543 19.5407 19.971 19.5337C19.9809 19.5296 19.9918 19.5262 20.0017 19.5242C20.0127 19.522 20.0122 19.5234 19.995 19.5234V53.5234C38.5221 53.5234 53.847 38.5784 53.8544 19.8359L19.8544 19.8223ZM14.5583 -5.91683H13.6824V28.0832H14.5583V-5.91683ZM13.6824 -5.91683C9.49558 -5.91683 4.13298 -4.4056 -0.0534677 0.150055L24.9812 23.1558C21.6322 26.8002 17.2596 28.0832 13.6824 28.0832V-5.91683ZM-0.053131 0.149689C0.221062 -0.148669 -1.76018 1.81665 -3.27941 4.49461C-4.95068 7.44055 -6.13586 11.1433 -6.13586 15.4521H27.8641C27.8641 17.5196 27.2693 19.5508 26.2932 21.2714C25.4691 22.7241 24.2877 23.9105 24.9809 23.1562L-0.053131 0.149689ZM-6.13586 15.4521C-6.13586 20.4123 -4.42685 24.3063 -3.43526 26.2522C-2.32051 28.4399 -1.14851 29.9914 -0.868072 30.3652L26.3287 9.96088C26.3281 9.96012 26.4253 10.0899 26.5236 10.2386C26.6071 10.3649 26.7255 10.5546 26.8585 10.8156C26.9842 11.0623 27.2031 11.5285 27.4047 12.1993C27.6021 12.8565 27.8641 13.9786 27.8641 15.4521H-6.13586ZM-0.856598 30.3805C-1.73613 29.2109 0.387867 32.2908 2.49228 34.5681C4.71743 36.9759 8.66345 40.638 14.3186 42.8607L26.756 11.2172C27.3388 11.4463 27.6337 11.6701 27.6605 11.6903C27.6925 11.7146 27.6162 11.6587 27.4627 11.4926C27.3182 11.3362 27.1871 11.1711 27.0878 11.0361C27.0425 10.9745 27.0058 10.922 26.9706 10.8706C26.9439 10.8315 26.9353 10.8186 26.8777 10.7337C26.8588 10.7058 26.8072 10.6295 26.7485 10.5446C26.7175 10.4997 26.6683 10.4287 26.6081 10.3439C26.554 10.2677 26.4504 10.1228 26.3172 9.94561L-0.856598 30.3805ZM14.3191 42.8609C16.7962 43.8344 19.4157 44.6896 22.1619 45.0565C25.3737 45.4856 28.4091 45.0317 27.5574 45.109L24.4858 11.248C24.2477 11.2696 24.0501 11.2916 23.9373 11.3045C23.8808 11.3109 23.8296 11.3169 23.804 11.3199C23.7881 11.3218 23.7801 11.3228 23.7716 11.3237C23.768 11.3242 23.7654 11.3245 23.7636 11.3247C23.7628 11.3248 23.7621 11.3248 23.7617 11.3249C23.7612 11.3249 23.761 11.325 23.761 11.325C23.761 11.325 23.7613 11.3249 23.7617 11.3249C23.7621 11.3248 23.7628 11.3248 23.7637 11.3247C23.7654 11.3245 23.768 11.3242 23.7714 11.3238C23.7781 11.323 23.7884 11.3219 23.8016 11.3205C23.8278 11.3177 23.8673 11.3135 23.9166 11.3088C24.0166 11.2993 24.1563 11.2873 24.3249 11.2771C24.678 11.2557 25.0802 11.2465 25.5153 11.2613C25.944 11.2759 26.33 11.3113 26.6644 11.356C26.9925 11.3998 27.2471 11.4494 27.4153 11.4866C27.4994 11.5051 27.5633 11.5209 27.6054 11.5318C27.6475 11.5427 27.6699 11.5492 27.6708 11.5495C27.6717 11.5498 27.6536 11.5445 27.6147 11.5319C27.5758 11.5194 27.5184 11.5004 27.4411 11.4735C27.2847 11.419 27.0597 11.3366 26.7555 11.217L14.3191 42.8609ZM27.5507 45.1096C31.9395 44.7132 35.3509 42.7832 36.9454 41.7554C38.3155 40.8724 42.9534 37.7707 45.1114 31.7447L13.1019 20.2819C14.1281 17.4163 15.7016 15.6457 16.4306 14.9006C17.2711 14.0416 18.0303 13.4966 18.5257 13.1773C19.043 12.8438 19.6261 12.5295 20.3113 12.2464C20.7688 12.0573 22.2882 11.4465 24.4925 11.2474L27.5507 45.1096ZM45.1114 31.7447C45.8018 29.8167 46.2046 27.8884 46.3621 26.0707C46.4394 25.1798 46.4806 24.0542 46.3814 22.7886C46.3552 22.4533 46.1876 18.833 43.9549 15.1079L14.7919 32.587C13.4671 30.3766 12.9884 28.4099 12.825 27.6837C12.6099 26.7278 12.5244 25.9425 12.4853 25.4447C12.4064 24.4368 12.4452 23.6414 12.4891 23.1352C12.58 22.0869 12.7923 21.1464 13.1019 20.2819L45.1114 31.7447ZM43.9321 15.0701C42.5591 12.7927 40.9377 11.2827 39.7891 10.3755C38.6778 9.49781 37.6886 8.93636 37.2134 8.67677C36.7233 8.40908 36.2908 8.20223 36.1984 8.15765C36.0012 8.06248 36.0651 8.09357 36.0795 8.10073L20.9149 38.5316C21.0554 38.6016 21.1766 38.6605 21.263 38.7023C21.3056 38.7228 21.3442 38.7414 21.37 38.7538C21.4004 38.7685 21.412 38.774 21.4231 38.7794C21.5199 38.8261 21.2565 38.7023 20.914 38.5152C20.5864 38.3363 19.7234 37.8531 18.7158 37.0572C17.6707 36.2319 16.1304 34.8073 14.8146 32.6248L43.9321 15.0701ZM36.0836 8.10276C35.8735 7.99803 35.1364 7.62945 34.3981 7.26806C34.2479 7.19458 32.4887 6.31055 31.1879 5.83778L19.5742 37.7928C19.2251 37.6659 18.9693 37.5588 18.8891 37.525C18.7802 37.4793 18.7066 37.4465 18.6843 37.4366C18.6414 37.4174 18.6515 37.4213 18.7364 37.4613C18.9001 37.5384 19.1466 37.6573 19.4516 37.8066C20.0522 38.1006 20.6637 38.4063 20.9108 38.5295L36.0836 8.10276ZM31.1673 5.83032C30.9992 5.76947 30.0789 5.42865 28.9156 5.15971C27.6943 4.87736 25.5454 4.50803 22.8907 4.8119C16.2914 5.56731 12.2033 9.62768 10.2179 12.5987L38.4873 31.489C37.7514 32.5902 36.4446 34.2401 34.3419 35.7142C32.0754 37.3033 29.4597 38.282 26.7574 38.5913C24.2693 38.8761 22.2942 38.5257 21.2573 38.286C20.716 38.1609 20.2926 38.0324 20.0435 37.9527C19.7974 37.8738 19.6202 37.8095 19.5948 37.8003L31.1673 5.83032ZM10.2267 12.5856C10.2741 12.5148 10.3163 12.4531 10.352 12.4016C10.3879 12.3499 10.4197 12.3049 10.4466 12.2671C10.4994 12.1931 10.5414 12.136 10.5689 12.099C10.597 12.0611 10.6176 12.034 10.629 12.0192C10.635 12.0114 10.6395 12.0056 10.6423 12.0019C10.6451 11.9983 10.6467 11.9963 10.6468 11.9961C10.6469 11.9959 10.6431 12.0008 10.6349 12.0111C10.6268 12.0213 10.6157 12.0351 10.6017 12.0525C10.573 12.088 10.5372 12.1318 10.4949 12.183C10.4088 12.2873 10.3163 12.3973 10.2335 12.4948C10.193 12.5423 10.1588 12.5822 10.1333 12.6118C10.1207 12.6264 10.1115 12.6371 10.1057 12.6437C10.0996 12.6507 10.0998 12.6505 10.1056 12.6439L35.6614 35.0693C35.7481 34.9706 37.4388 33.0549 38.4785 31.5021L10.2267 12.5856ZM10.0937 12.6575C11.5917 10.9467 14.978 7.89684 20.4113 7.23729C25.1477 6.66235 28.5866 8.31239 29.4796 8.75767L14.3068 39.1844C15.6569 39.8577 19.4578 41.6026 24.5084 40.9895C30.256 40.2918 33.9089 37.0708 35.6733 35.0557L10.0937 12.6575ZM29.4958 8.76579C29.3516 8.69366 29.2242 8.63232 29.1213 8.58358C29.0178 8.53456 28.9262 8.49232 28.8523 8.4586C28.7781 8.42474 28.7124 8.39524 28.66 8.37188C28.6075 8.3485 28.5606 8.3278 28.5245 8.31193C28.4891 8.29633 28.4552 8.28147 28.4323 8.27144C28.406 8.25992 28.3899 8.25284 28.3733 8.24558C28.3426 8.23209 28.3313 8.22703 28.328 8.22556C28.325 8.22418 28.3592 8.23948 28.4133 8.26575C28.468 8.29224 28.5367 8.32689 28.6149 8.36904C28.7752 8.45547 28.9435 8.5564 29.1092 8.67038C29.2743 8.78385 29.4134 8.89414 29.5258 8.99403L6.94069 34.4089C8.93184 36.1783 10.8499 37.4177 12.4781 38.2957C13.2789 38.7275 13.9575 39.0435 14.4199 39.2508C14.5307 39.3005 14.6271 39.3429 14.6972 39.3738C14.8183 39.427 14.7652 39.4035 14.828 39.4311C14.9432 39.4818 14.6561 39.3591 14.2906 39.1763L29.4958 8.76579ZM29.5255 8.99377C29.7861 9.22535 29.9543 9.4072 30.04 9.50425C30.1291 9.60515 30.1809 9.67348 30.2024 9.7026C30.2377 9.75024 30.2726 9.80201 30.3381 9.91391L0.991015 27.0821C1.49765 27.9482 3.52814 31.3764 6.94099 34.4091L29.5255 8.99377ZM30.3399 9.91695C31.1566 11.3137 32.0761 13.3858 32.4148 16.0427C32.7701 18.8298 32.3903 21.522 31.5065 23.8905C30.0446 27.8086 27.2687 30.202 27.8379 29.6374L3.89286 5.49953C3.88671 5.50563 3.19984 6.16862 2.48913 7.04615C1.72927 7.98435 0.530189 9.65033 -0.348315 12.0048C-2.53044 17.8531 -1.18243 23.3651 0.989237 27.0791L30.3399 9.91695ZM27.8413 29.634C28.0429 29.4339 28.7532 28.7333 29.4663 27.904L3.68714 5.73571C3.77663 5.63164 3.84558 5.5556 3.88554 5.51214C3.92677 5.46732 3.95394 5.43896 3.96273 5.42982C3.97484 5.41724 3.96267 5.43024 3.88945 5.50291L27.8413 29.634ZM29.4799 27.8882C30.4814 26.7207 31.2272 25.5712 31.7995 24.5075C32.0272 24.0841 32.1984 23.726 32.2407 23.6382C32.317 23.4796 32.261 23.5965 32.2156 23.687L1.82955 8.43295C1.76021 8.57107 1.70322 8.68804 1.66419 8.76877C1.64505 8.80835 1.62852 8.84275 1.61833 8.86399C1.60465 8.89249 1.60449 8.89284 1.60064 8.90085C1.58064 8.94242 1.69275 8.70539 1.85662 8.40075C2.04343 8.05347 2.30272 7.6054 2.64181 7.10429C2.98078 6.60337 3.32988 6.15218 3.67355 5.75154L29.4799 27.8882ZM32.2217 23.6748C35.8594 16.4141 33.3553 9.98449 32.1815 7.64332L1.78734 22.8812C1.38602 22.0807 0.490563 20.1431 0.200941 17.4508C-0.12017 14.4657 0.383556 11.3191 1.82344 8.44514L32.2217 23.6748ZM32.1775 7.63522C32.2999 7.87904 32.3885 8.07089 32.4267 8.15434C32.4724 8.25408 32.5068 8.332 32.5257 8.37512C32.5461 8.42155 32.561 8.45647 32.5691 8.47543C32.5776 8.49539 32.583 8.50825 32.5846 8.51207C32.5853 8.51358 32.5677 8.47153 32.5218 8.35867C32.4277 8.12717 32.3174 7.8526 32.1582 7.45834C32.0125 7.09755 31.8395 6.67064 31.6702 6.26119C31.5165 5.88942 31.3003 5.37276 31.082 4.88899L0.0908475 18.8728C0.0758058 18.8395 0.121727 18.9422 0.250355 19.2533C0.3634 19.5267 0.493037 19.846 0.631727 20.1895C0.756903 20.4995 0.912772 20.8871 1.02794 21.1702C1.0867 21.3146 1.15964 21.493 1.23174 21.6648C1.26715 21.7492 1.32051 21.8755 1.38298 22.0181C1.41312 22.0869 1.57223 22.4527 1.7914 22.8893L32.1775 7.63522ZM31.0814 4.8876C30.0859 2.68191 27.9824 -0.901902 23.7382 -3.41915C19.5309 -5.91446 15.4279 -5.89542 15.2587 -5.9024L13.8579 28.0687C13.8578 28.0687 13.8412 28.068 13.8171 28.067C13.7922 28.0658 13.7534 28.064 13.7049 28.0614C13.6095 28.0562 13.4589 28.0472 13.2723 28.0316C12.9016 28.0008 12.3281 27.9398 11.6322 27.8075C10.1547 27.5265 8.30564 26.9581 6.39397 25.8243C2.49679 23.5129 0.744554 20.3212 0.0914738 18.8742L31.0814 4.8876ZM-16.9849 19.8148V19.8245H17.0151V19.8148H-16.9849Z" fill="#181818" mask="url(#path-1-inside-1_18_481)"/>
</svg>
